<svg enable-background="new 0 0 24 24" height="24" viewBox="0 0 24 24" width="24" xmlns="http://www.w3.org/2000/svg"><path d="m13.427 16.991c.293-.061.789-.242 1.375-.365.463.412.898.984.985 1.398.1.473.479.83.474 1.369-.007.506.116.875.14 1.371l1.475-.92 2.243-8.591c-.192-.231-.387-.465-.582-.695-.229-.27-.828-.934-1.407-1.37-.38-.287-.982-.706-1.42-.923-.909-.452-1.832-.882-2.72-1.37-.456-.25-1.348-.589-1.445-.741-.106-.165-.279-.605-.418-.815-.242-.368-.572-1.529-.72-1.609-.138-.074-.385.735-.478.568-.137-.251-.397-1.657-.676-.593-.17.65-.411 1.087-.701 1.616-.356.651-.644.979-.958 1.553-.248.454-.551.901-.888 1.287-.323.369-.542.889-.894 1.291-.34.388-.602.761-.889 1.288-.224.41-.614.787-.89 1.291-.292.533-.514.94-.794 1.456-.255.465-.557 1.107-.18 1.75.25.428.493.674.96 1.082.437.381.51 1.021 1.23.602.623-.367.991-.299 1.819-.082.585.152 1.132.377 1.944.508.428.068 1.387.195 1.913.084.552-.118.898-.311 1.502-.44zm-2.998-.713c-.623-.066-1.154-.092-1.864-.277-.441-.117-.45-.166-.647-.258.405-.281.75-.572.883-.648.499-.293.756-.555 1.177-.801.409-.24.674-.725 1.083-.965.21-.123.511-.105.81-.033.297.076.591.209.778.313.131.07.62.869.729 1.055.208.357.533.648.687 1.078-.429.076-1.084.396-1.962.488-.752.082-.987.121-1.674.048z" fill="#fff"/></svg>