<?xml version="1.0" encoding="UTF-8" standalone="no"?>
<svg
   xmlns:dc="http://purl.org/dc/elements/1.1/"
   xmlns:cc="http://creativecommons.org/ns#"
   xmlns:rdf="http://www.w3.org/1999/02/22-rdf-syntax-ns#"
   xmlns:svg="http://www.w3.org/2000/svg"
   xmlns="http://www.w3.org/2000/svg"
   xmlns:sodipodi="http://sodipodi.sourceforge.net/DTD/sodipodi-0.dtd"
   xmlns:inkscape="http://www.inkscape.org/namespaces/inkscape"
   version="1.1"
   id="Vrstva_1"
   x="0px"
   y="0px"
   width="24px"
   height="24px"
   viewBox="0 0 24 24"
   style="enable-background:new 0 0 24 24;"
   xml:space="preserve"
   sodipodi:docname="frg_mine.svg"
   inkscape:version="1.0.2 (e86c870879, 2021-01-15)"><metadata
   id="metadata16"><rdf:RDF><cc:Work
       rdf:about=""><dc:format>image/svg+xml</dc:format><dc:type
         rdf:resource="http://purl.org/dc/dcmitype/StillImage" /><dc:title></dc:title></cc:Work></rdf:RDF></metadata><defs
   id="defs14" /><sodipodi:namedview
   pagecolor="#ffffff"
   bordercolor="#666666"
   borderopacity="1"
   objecttolerance="10"
   gridtolerance="10"
   guidetolerance="10"
   inkscape:pageopacity="0"
   inkscape:pageshadow="2"
   inkscape:window-width="1453"
   inkscape:window-height="938"
   id="namedview12"
   showgrid="false"
   inkscape:zoom="23.291667"
   inkscape:cx="12"
   inkscape:cy="12"
   inkscape:window-x="369"
   inkscape:window-y="76"
   inkscape:window-maximized="0"
   inkscape:current-layer="Vrstva_1" />
<g
   id="g9">
	<g
   id="layer1_1_"
   transform="translate(0,-1036.3622)"
   inkscape:label="Vrstva 1"
   inkscape:groupmode="layer">
		<g
   id="use3768"
   inkscape:connector-curvature="0"
   sodipodi:nodetypes="ccccccccccccccccccccc">
			<polygon
   style="fill:#FFFFFF;"
   points="15.853,1040.628 13.846,1042.636 15.794,1044.584 11.956,1048.422 7.94,1044.407      9.657,1042.633 7.708,1040.625 3.794,1044.537 2.773,1049.597 6.582,1045.706 10.657,1049.78 5.637,1054.74 6.937,1056.099      11.956,1051.079 16.975,1056.099 18.274,1054.74 13.255,1049.78 17.151,1045.883 19.22,1047.95 21.227,1045.942    "
   id="polygon2" />
			<polygon
   style="fill:none;stroke:#FFFFFF;stroke-width:0.25;"
   points="15.853,1040.628 13.846,1042.636 15.794,1044.584      11.956,1048.422 7.94,1044.407 9.657,1042.633 7.708,1040.625 3.794,1044.537 2.773,1049.597 6.582,1045.706 10.657,1049.78      5.637,1054.74 6.937,1056.099 11.956,1051.079 16.975,1056.099 18.274,1054.74 13.255,1049.78 17.151,1045.883 19.22,1047.95      21.227,1045.942    "
   id="polygon4" />
		</g>
		<path
   id="path3002"
   inkscape:connector-curvature="0"
   sodipodi:nodetypes="ccccccccccccccccccccc"
   d="M15.853,1040.628    l-2.007,2.008l1.948,1.948l-3.838,3.838l-4.015-4.016l1.716-1.774l-1.949-2.008l-3.914,3.913l-1.021,5.061l3.809-3.893    l4.075,4.074l-5.02,4.96l1.299,1.359l5.019-5.021l5.019,5.021l1.3-1.359l-5.02-4.96l3.896-3.897l2.068,2.066l2.007-2.008    L15.853,1040.628z" />
	</g>
</g>
</svg>
