<svg xmlns="http://www.w3.org/2000/svg" width="100" height="100"><path fill="#e5ffe1" fill-opacity=".733" d="M-7.857-7.857h115.714v115.714H-7.857z"/><path d="M65.696 52.512c-8.663 1.527-8.776 13.804-5.339 16.013 4.978 3.2 12.499-.883 15.678 1.428 3.18 2.31 20.648-.656 14.193-6.695-6.454-6.039-12.13-5.038-14.738-6.731-2.609-1.693-9.794-4.015-9.794-4.015zM62.626 36.295c11.25-6.292 5.223-23.177-.66-24.54-8.518-1.975-16.897 7.267-22.473 5.64-5.575-1.626-28.32 10.905-16.32 16.056 11.998 5.152 19.369 1.03 23.841 2.086 4.473 1.058 15.612.758 15.612.758zM13.868 73.205c-6.235 4.18-2.088 13.801 1.357 14.34 4.988.78 9.45-5 12.73-4.294 3.278.707 15.89-7.634 8.768-10.12-7.121-2.488-11.206.25-13.826-.171-2.62-.422-9.03.245-9.03.245z" fill="#f06000" fill-opacity=".141"/></svg>