<?xml version="1.0" encoding="UTF-8"?>
<svg width="580" height="580" version="1.1" xmlns="http://www.w3.org/2000/svg"><path d="m0 0h580v580h-580v-580z" fill="#fffefe" fill-rule="evenodd" opacity=".399"/><path d="m145 0c-12.9 21 29 46.6 22.7 12.1 9.04-19.6-13.3-10-22.7-12.1zm271 0c-16.4 26.4 35.3 58.5 35.4 17 9.76-27.1-21.6-14.5-35.4-17zm138 0v34.5c30.7 16.9 40.6-46.2 6.77-34.5h-6.77zm-355 16.5c-17.6 36 60.5 33.7 31.5 0.55-10.3-1.22-21-0.227-31.5-0.55zm-99.9 0.998c-12.8 31.2 34.3 47.2 29.4 8.34-6.69-9.83-19-9.97-29.4-8.34zm266 0c-15 31.3 34.8 31.9 17.1 1.29-5.1-3.2-11.6-1.43-17.1-1.29zm-74.9 2c-11 27.7 34.5 43.1 29.8 7.72-6.51-9.02-19.9-8.64-29.8-7.72zm-241 4c-35.1 16.6 19.3 60.3 24.2 19.2 3.32-14.7-10.7-24.6-24.2-19.2zm439 3c-17.2 33.6 44.1 48 37.5 8.23-4.93-15.5-25.9-5.56-37.5-8.23zm-316 13c-15.9 19.6 18.7 57.8 24.5 21.3 0.262-12.9-13.6-19.4-24.5-21.3zm94.9 7.99c-40.1 1.54 3.73 70.1 15.8 26.9 3.95-11-2.15-27.5-15.8-26.9zm294 5c-35.4-11.4-46.1 52.9-3.88 38.3 10.7-9.65 1.21-25.9 3.88-38.3zm-245 17c-18.3 33 52.6 38.9 29.6 3.72-8.17-8.34-19.7-2.6-29.6-3.72zm147 0c-15 23.3 29.8 55.8 26.6 17.4 1.32-17.2-13.4-19.6-26.6-17.4zm-370 0.998v40c23 2.9 36.4-42.5 7.18-40h-7.18zm71.9 23c-14.4 21.6 21 59.1 24.2 19.5 5.93-16-15.9-14.1-24.2-19.5zm242 3c-13.9 25.8 38.1 56.5 30.6 16.4-3.77-13.7-17.1-20.9-30.6-16.4zm-385 1v31c27.4 15.1 31-42.9 1.26-31zm264 2c-39.8-11.7-15.3 61.5 9.71 27.1 5.87-10.1-4.64-19.5-9.71-27.1zm270 0c-35.2 10.7-1.72 64 17.8 30.4 15.5-12.3-13.7-21-17.8-30.4zm-179 21c-23.7-5.51-41.8 13.5-16.8 28.1 17.7 2.82 27.3-14.8 16.8-28.1zm-140 6.99c-14.9 21.6 20.8 48.1 27.7 25.5-5-12.3-18.6-17-27.7-25.5zm272 4c-34.8 1.75 7.71 52.7 14.4 17.3 1.4-8.4-5.65-17.7-14.4-17.3zm-390 13c-15 33.8 49.8 8.73 15.1 0h-15.1zm198 0.998c2.33 11.3 4.66 22.6 6.99 34 24.4-6.47 21.5-42.9-6.99-34zm-223 16c-43.5-9.65-9.07 56.1 10.7 15.4-0.351-6.65-6.26-11.1-10.7-15.4zm376 9.78c-44.7-8.81-4.81 65.4 9.47 18.4 2.29-7.24 0.911-19.5-9.47-18.4zm-442 1.21c-20.6 5.13-9.07 40.3-0.723 14.7 0.0365-4.9 0.134-9.81 0.723-14.7zm164 18c-12.8 23 24.9 51.1 25.5 14.2 1.28-14.6-15.2-15.1-25.5-14.2zm361 5c-17.7 35.6 52 26.4 22.2 0.167-7.32-1.57-14.8 0.274-22.2-0.167zm-431 0.998c-32.7 15.2 16.4 61.1 20.5 23.6 2.31-14.8-2.77-28.4-20.5-23.6zm115 1v43c29.3 17.1 38.1-45.2 14.5-43h-14.5zm181 3c-11 5.77-18 38.1-2.42 28.2 1.94-9.28 0.8-18.9 2.42-28.2zm-54 1c-44.1 4.68 17.8 59.4 16.7 14.3-0.799-8.06-8.74-14.4-16.7-14.3zm-312 32c-19 4.87-49 17.2-18.1 33 21.5 13.5 17.6-20.6 18.1-33zm241 0c-29.7 28.4 41.4 43.6 17.7 3.26-5.6-2.57-12-1.05-17.7-3.26zm-106 11c-32.6-15-15.8 45.8 0.144 26.3 0.0452-8.76-0.516-17.5-0.144-26.3zm288 0.746c-41 19.8 45.8 48.9 18.4 7.75-4.92-4.65-11.5-7.82-18.4-7.75zm81.7 0.254c-30.1-15.6-44.7 37.5-10.1 32 12.3-6.65 11.3-20.4 10.1-32zm-457 0.998c-6.72 29.7 32.9 55.6 26 11 7.11-15.7-17.6-8.14-26-11zm112 25c-35.9-3.26-8.45 58.6 10.8 23.2 3.21-9.52-8.26-15.1-10.8-23.2zm71.9 0c-23.1 10.8-0.517 52.1 11.5 23.1-0.686-9-9.09-14.7-11.5-23.1zm105 0c-27.4-12-57.7 27.2-17.1 32.1 19.2 3.2 34.4-17.7 17.1-32.1zm-389 12.6v42.4c30.6-2 37.3-45.2 0-42.4zm419 24.4c-12.8 28 43.3 42.6 25.6 6.52-5.42-8.94-17.1-5.83-25.6-6.52zm-348 3c-42.5-2.3 1.94 63.2 16.4 21.1 4.23-10.3-4.15-24.9-16.4-21.1zm54.4 4c-19.4 36.7 53.5 37.6 33.2 1.73-10.8-2.69-22.2-0.538-33.2-1.73zm427 19c-26.8-11.4-58.9 19.9-26 39 22.2 23.2 27.8-26.2 26-39zm-284 1.34c-43.6-11.6-10.7 57.8 9 20.6 5.39-8.2 2.08-20.5-9-20.6zm-74.2 2.12c-13.9 27 26.1 22.7 30.2 9.74-9.73-4.3-21-4.31-30.2-9.74zm295 2.54c-28.6-13.9-46 36.6-10.7 37.5 20.6 8.22 5.45-28.5 10.7-37.5zm-130 3.12c-35.1-14.1-22.3 49.7-0.184 29.9 1.08-9.93-0.353-19.9 0.184-29.9zm31.1 2.83c-12.2 28.4 47.2 30.6 22.7 1.83-7-4.27-15.2-1.18-22.7-1.83zm-369 15v38c24-2.04 34.9-47.5 0-38zm57 20.3c-30.4 25.1 47.9 21.9 13 0.0831-4.34-0.0222-8.72 1.03-13-0.0831zm84.1 0.707c-11-1.15-48.5 0.362-21 12.6 8.93-0.472 13.3-9.53 21-12.6zm39.6 0c-16.1 32.7 46.4 41.8 33.3 4.3-7.88-9.45-22.7-1.87-33.3-4.3zm89.7 5.65v37.4c33.3 4.57 38.4-43 0-37.4zm69.9 19.1c-14.5 33.1 50.5-0.751 13.8 1.59-4.6-0.537-9.19-1.12-13.8-1.59zm80.5 2.12c-27.1 30.9 38.6 34.3 16.9-0.345-5.7-1.83-11.2 1.65-16.9 0.345zm-300 5.65c-23 8.67-5.25 51.6 8.52 26.1 1.34-9.61-5.6-17.5-8.52-26.1zm53 2.12c-42.2-10.2-7.9 65.7 7.88 21.2-1.22-7.57-6.47-13.7-7.88-21.2zm117 17v36.7c29.8 8.3 29.8-40.6 0-36.7zm-222 0.371c-19.5-3-42 3.71-26.9 26.2 9.84 22.3 36.3-12.9 26.9-26.2zm448 0c-5.66 8.33-11.3 16.7-17 25 18.7 12.9 15.5-14.8 17-25zm-289 1.75c-11.9 25.5 24.2 41.6 23.8 8.9-2.77-9.87-16.1-7.66-23.8-8.9zm155 12.7c-41.4-3.88-4.37 66.8 12 19.5 0.369-8.27-7.35-13.8-12-19.5zm-203 12.7c-6.97 27 37.9 41.2 33 8.56-7.59-9.95-22.5-5.46-33-8.56zm-160 1.92c-36.9-10.5-16 60.2 5.27 22.9 3.02-7.27 5.89-21.1-5.27-22.9zm436 0.426c-36.6-11.2-26.9 64.5 2.6 31.7 5.66-9.09 11.2-26.7-2.6-31.7zm-212 16.7c-15.2 30.4 40.6 41.8 30.1 6.52-7.21-8.68-20.2-6.47-30.1-6.52zm-143 6.7c-16.8 32.4 54 22.1 25.7 0.11-8.55-0.958-17.1 0.381-25.7-0.11zm-68.9 19c-6.66 7.99-13.3 16-20 24 6.83 18.4 54.1 35.6 44.6 2.21-3.43-12.2 0.123-32.4-19.7-25.9zm357 0c-13.3 20.1 32.1 40.3 12.1 15.2-4.1-5-8.05-10.1-12.1-15.2zm-65.8 1.87c-41.8-12.3-1.46 57.8 8.29 19.1 0.52-7.02-1.34-15.7-8.29-19.1zm213 16.1c-29.2 0.329-17.8 29.8 1.54 25 0.516-8.4-3.33-16.7-1.54-25zm-90.9 1c0.124 23.7 39 9 18.4-0.443-6.15-0.0704-12.3 0.998-18.4 0.443zm-227 7.99c-11.7 15.7 15.6 42 18.2 22.9-5.91-7.77-12.5-15-18.2-22.9zm-106 0.33c-19.7 34 49.3 38.3 26.2 3.7-8.04-4.35-17.6-1.85-26.2-3.7zm-129 17.7c-14.6 24.3 30.4 45.3 26.4 12.5-1.15-13.4-16-15-26.4-12.5zm97.9 2c-11 5.66-22 11.3-33 17 18.3 4.31 39.3 22.2 33-17zm393 0c-18.4 41.7 65 32 30.4 0h-30.4zm-195 1.54c-21.6 18.3-1.31 33.5 18.3 25.3 10.2-13.9-3.15-28.6-18.3-25.3zm72.8 0.705c-22.4 14.5 4.29 39.9 15.2 15.1 8.94-13.8-3.63-17.3-15.2-15.1z" fill="#b98a8a"/></svg>
