<?xml version="1.0" encoding="UTF-8"?>
<svg width="128" height="128" version="1.1" viewBox="0 0 33.9 33.9" xmlns="http://www.w3.org/2000/svg"><path d="m8.3 1.19c-0.129 0.0596-0.0112 1.04 0.0217 1.62 0.0498 0.874-0.0196 1.23-0.00156 3.18h-5.29e-4c-0.182 1.97-0.106 2.73 0.27 2.73 1.09 0 0.434-7.24-0.261-7.54-0.0109-0.00462-0.0204-0.00449-0.0289-5.16e-4zm-4.17 1.47c-0.118-0.0309 0.653 0.67 1.04 1.57 0.503 1.16 0.907 2.03 0.907 3.44 0 0.587 0.199 1.07 0.442 1.07 1.29 0-0.266-4.65-1.93-5.78-0.284-0.193-0.422-0.284-0.461-0.295zm8.69 0c-0.0392 0.0103-0.177 0.102-0.46 0.295-1.67 1.13-3.22 5.78-1.93 5.78 0.243 0 0.442-0.48 0.442-1.07 0-1.4 0.405-2.27 0.908-3.44 0.389-0.898 1.16-1.6 1.04-1.57zm-9.54 2.92c-0.109-0.00879 0.385 0.265 0.658 0.888 0.286 0.652 0.376 1.24 0.376 1.6 0 0.362 0.199 0.658 0.442 0.658 0.563 3e-7 0.655-0.365 0.0667-1.75-0.26-0.614-0.856-1.19-1.2-1.3-0.201-0.0633-0.304-0.0973-0.34-0.1zm10.4 0c-0.0362 0.00293-0.139 0.037-0.34 0.1-0.348 0.11-0.943 0.685-1.2 1.3-0.588 1.39-0.497 1.75 0.0667 1.75 0.243 0 0.442-0.296 0.442-0.658h5.29e-4c0-0.362 0.0901-0.953 0.376-1.6 0.273-0.623 0.767-0.897 0.658-0.888zm-3.26 4.06c-1.43 0.0173-2.87 0.0208-4.29 0.106-0.135 0.0178-0.202 0.182-0.0543 0.228 0.712 0.131 1.46 0.104 2.18 0.135 2 0.0348 4.01 0.0509 6-0.0656 0.141-0.0232 0.418-0.026 0.388-0.193-0.0979-0.158-0.376-0.105-0.551-0.136-1.22-0.0778-2.45-0.0771-3.68-0.0749zm3.22 1.36c-0.17 0.0011-0.341 0.0032-0.51 0.0047-0.583 0.0198-1.18 0.0162-1.75 0.113-0.143 0.0682-0.0596 0.255 0.0992 0.252 0.87 0.165 1.78 0.113 2.67 0.113 0.381-0.0142 0.779-0.0206 1.14-0.131 0.142-0.0777 0.0457-0.265-0.118-0.256-0.499-0.0897-1.01-0.0993-1.52-0.0961zm11.4 3.85c-0.129 0.0596-0.0107 1.04 0.0222 1.62 0.0497 0.874-0.0201 1.23-0.0021 3.18-0.182 1.97-0.107 2.73 0.27 2.73 1.09 0 0.434-7.24-0.261-7.54-0.0109-0.0046-0.0204-0.0045-0.0289-5.29e-4zm-4.17 1.47c-0.118-0.0309 0.653 0.67 1.04 1.57 0.503 1.16 0.907 2.03 0.907 3.44 0 0.587 0.199 1.07 0.442 1.07 1.29 0-0.266-4.65-1.93-5.78-0.284-0.193-0.421-0.284-0.46-0.295zm8.69 0c-0.0392 0.0103-0.177 0.102-0.46 0.295-1.67 1.13-3.22 5.78-1.93 5.78 0.243 0 0.442-0.48 0.442-1.07 0-1.4 0.405-2.27 0.908-3.44 0.389-0.898 1.16-1.6 1.04-1.57zm-9.54 2.92c-0.109-0.0088 0.386 0.265 0.659 0.888 0.286 0.652 0.376 1.24 0.376 1.6 0 0.362 0.199 0.658 0.442 0.658 0.563 0 0.655-0.364 0.0667-1.75-0.26-0.614-0.856-1.19-1.2-1.3-0.201-0.0632-0.304-0.0973-0.34-0.1zm10.4 0c-0.0362 0.0029-0.139 0.037-0.34 0.1-0.348 0.11-0.943 0.686-1.2 1.3-0.588 1.39-0.496 1.75 0.0672 1.75 0.243 0 0.442-0.296 0.442-0.658 0-0.362 0.0901-0.953 0.376-1.6 0.273-0.623 0.767-0.897 0.658-0.888zm-3.26 4.06c-1.43 0.0173-2.87 0.0208-4.29 0.106-0.135 0.0178-0.202 0.182-0.0543 0.228 0.712 0.131 1.46 0.104 2.18 0.135 2 0.0348 4.01 0.0509 6-0.0656 0.141-0.0232 0.419-0.026 0.389-0.193-0.0979-0.158-0.376-0.105-0.552-0.136-1.22-0.0778-2.45-0.0771-3.68-0.0749zm3.22 1.36c-0.17 0.0011-0.341 0.0032-0.51 0.0047-0.583 0.0198-1.18 0.0162-1.75 0.113-0.143 0.0682-0.0596 0.256 0.0992 0.253 0.87 0.165 1.78 0.113 2.67 0.112 0.381-0.0142 0.779-0.0206 1.14-0.131 0.142-0.0777 0.0457-0.264-0.118-0.255-0.499-0.0897-1.01-0.0998-1.52-0.0966z" fill="#0092d9" fill-opacity=".6" stroke-width=".0281"/><path d="m29.9 13.3c-0.887 0.0144-1.78 0.0175-2.66 0.0889-0.0834 0.0149-0.125 0.151-0.0336 0.19 0.442 0.11 0.903 0.0863 1.35 0.112 1.24 0.029 2.48 0.0429 3.72-0.0543 0.0875-0.0194 0.26-0.0217 0.241-0.161-0.0607-0.132-0.233-0.0876-0.342-0.114-0.759-0.0649-1.52-0.0644-2.28-0.0625zm2.32 1.14c-0.211-0.0072-0.423-9.52e-4 -0.634 0.0016-0.362 0.0165-0.731 0.0132-1.09 0.094-0.089 0.0569-0.0365 0.213 0.062 0.21 0.54 0.137 1.1 0.0939 1.65 0.0935 0.236-0.0118 0.482-0.0172 0.704-0.109 0.0881-0.0648 0.0285-0.22-0.0729-0.213-0.206-0.0499-0.417-0.0703-0.628-0.0775zm-27.8 9.9c-0.887 0.0144-1.78 0.0175-2.66 0.0889-0.0834 0.0149-0.125 0.152-0.0336 0.191 0.442 0.11 0.903 0.0863 1.35 0.112 1.24 0.029 2.48 0.0424 3.72-0.0548 0.0875-0.0194 0.26-0.0212 0.241-0.16-0.0607-0.132-0.233-0.0882-0.342-0.114-0.759-0.0649-1.52-0.0644-2.28-0.0625zm2.32 1.14c-0.211-0.0072-0.423-0.0015-0.634 1e-3 -0.362 0.0165-0.731 0.0132-1.09 0.094-0.089 0.0569-0.037 0.213 0.0615 0.21 0.54 0.137 1.1 0.0939 1.65 0.0935 0.236-0.0118 0.483-0.0172 0.705-0.109 0.0881-0.0648 0.028-0.22-0.0734-0.212-0.206-0.0499-0.416-0.0703-0.627-0.0775z" fill="#0092d9" fill-opacity=".4" stroke-width=".0202"/></svg>
