<?xml version="1.0" encoding="UTF-8"?>
<svg width="580" height="580" version="1.1" xmlns="http://www.w3.org/2000/svg"><path d="m0 0h580v580h-580v-580z" fill="#e5e5e5" opacity=".5"/><path d="m104 0c27.3 5.69 55.5 8.37 81 20.4 8.68 6.36 11.6 19.4 18 28.4 6.52 3.33 19.9 8.34 24.6-1.27 6.96-7.47 18.5-14.5 7.17-23.7-7.91-4.15-21.8 4.53-28.9-1.85-6.75-6.83-11.8-17.3-19.5-22h-82.3zm254 0c-13.3 6.84-26.6 13.7-40 20.5 7.37 9.91 15.4 12.8 24.4 3.01 5.98 0.895 7.4 23.5 14.6 6.18 3.56-7.96 20.6-17.2 7.85-23.6-2.28-2.03-4.57-4.05-6.85-6.08zm156 0-50 47.5c15.4-6.47 33.1-9.34 44.2-22.9 9.23-8.2 18.5-16.4 27.7-24.6h-22zm-486 53.5c-0.84 8.47-11.9 21.9-5.89 27 9.62 3.31 19.2 6.62 28.9 9.92-1.73-9.14 0.588-21.2-3.51-28.6-6.49-2.78-13-5.56-19.5-8.34zm402 2c-5.95 3.18-28.7-0.312-22 7.9 6.66 8.69 13.3 17.4 20 26.1 11-1.82 20.1 0.842 26.2 10.7 15.3 16.1 30.5 32.2 45.8 48.2 2.82-6.68 22.2-15.5 12.8-20.6-16.6-10.4-33.2-20.9-49.8-31.3 0.931-11-5.91-17.9-14.2-24-6.27-5.66-12.5-11.3-18.8-17zm-330 18c-17.9 12.8-39.9 20.9-52.7 39.7-7.27 7.45-13.9 15.2-12.9 26.3-4.65 11.1-16 19.1-23.3 28.9 14-3.66 28-7.33 42-11-0.759-10.8 1.92-20.2 10.2-27.5 10.1-14.2 23.7-26.5 31.5-42 1.76-4.79 3.53-9.58 5.29-14.4zm233 0c-21 16-42 32-62.9 48-0.572 15 14.2 1.72 22.2 1.04 15.4-4.13 23.5-20.1 35.5-29.7 3.77-5.78 21.5-17.3 16-19.3h-10.7zm-163 54c-0.848 9.53-10.9 21.2-0.58 28.1 17.5 19.9 35 39.9 52.5 59.8-10.9-2.24-19.4 2.53-27.2 9.7-1.9 4.48-3.28 28 6.01 19.1 10.9-4.95 21.6-13.6 32.7-16.3 12.1 4.47 24.3 8.95 36.4 13.4-8.87-11.7-21-22.3-27.9-34.6 3.47-13.2-0.444-18.3-13.7-13.1-14.7 7-11.2-6.18-10.4-16.3-14.5-17.1-32.2-33.2-47.9-49.9zm191 47c-10 1.52-24.2 0.989-12.4 13 1.82 13.6 18 4.75 23.5 13.7 8.28 10.1 16.6 20.1 24.8 30.2 5.15-13.2 10.2-16 15.1-1.03 7.4 17.8 3.85-2.19 3.65-10.6 3.14-12.7-9.04-15.8-17.8-21.1-12.6-7.56-24.5-16.2-36.9-24.2zm-361 13c0.108 14.8-1.88 29.9 5.65 43.4 2.79 9.94 7.43 18.9 14.3 26.6 4.76-7.51 20.6-12 15.2-22.3-3.53-9.62-4.49-21.1-9.53-29.6-8.54-6.01-17.1-12-25.6-18zm343 19c-14.5 14.5-31.5 27.2-44.4 42.9-2.75 8.15-15.5 21.7 1.17 19.4 6.74-0.85 25.9 7.2 24.8 0.706-4.53-9.1-12.4-18.3-2.71-26.9 7.05-12 14.1-24 21.2-36.1zm158 26c-9.96 14.1-17.7 30.3-33.5 38.7-7.28 3.69-7.92 22.2 3.57 20 10.9 4.07 11.5-14.1 17.6-20.4 3.32-12.4 20.5-5.3 28.2-11.7 2.29-7.3 16.7-20.7 10.9-23.9-8.9-0.89-17.8-1.78-26.7-2.67zm-457 36c2.43 12-0.78 26.6 10.9 34.3 10.2 13.8 28.7 15.8 43.1 23.6-0.588 10.8 0.251 20.7 12.7 22.9 7.18 5.7 24.2 5.98 19.4 18.3-6.34 14.9 8.9 10.3 18.5 10.8 17.9 3.73 2.83-8.13-2.18-15.2-14.8-8.95 10.7-10.9 9.94-15.3-12.8-5.89-27.6-9.55-39.3-16.8-6.71-11.2-13.4-22.4-20.1-33.6-8.73-2.24-23.9 5.48-26.7-5.99-5.59-6.86-4.95-23.4-15.2-23h-11.1zm219 2c-7.78 5.51-22.4 7.31-17.3 19.8-0.0805 9.81-13 14.8-18.4 22.6-12.7 12.5-25.5 25-38.2 37.6 6.56 4.4 12.2 25 19.6 14.3 10.8-8.61 11.9-25.8 21-34.5 7.33-3.37 26.3 2.93 22.9-9.35-2.3-8.78 4.12-19.8 11.6-23.1 20.7-2.55 0.804-2.08-0.465-12.3l-0.754-15.1zm191 39c-6 13.6 13.1 11.2 17.8 8.36 1.98-12.4-10.1-6.15-17.8-8.36zm-13 24c-10.1 2.05-22.7-1.21-31.3 4.36-9.56 9.87-19.1 19.7-28.7 29.6 8.99 5.33 18 10.7 27 16-2.34-10.4-3.32-20.4 7.55-26 8.47-7.99 16.9-16 25.4-24zm-441 3v35.7c10.4-10.5 25.2-15.5 37.4-23.7-6.67-8.1-13.9-14.9-25.1-12h-12.3zm580 22c-36.3 34.9-73.6 68.7-112 101-7.19 5.13-8.89 19-4.11 26.2 5.97 12.6 11.7 14.6 17.2 0.585 10.7-18 22.9-34.7 38.2-49 20.4-21.6 40.8-43.2 61.2-64.7v-13.7zm-291 27c16.7 17.3 33.3 34.6 50 52 11.5-3.29 17.7 6.83 25.2 13.6 16.9 16.1 33.8 32.2 50.7 48.4 9.05-2.08 25.5 2.61 21-11.8 4.82-14.5-10.6-9.74-19.7-11-11.3-5.54-20-17.4-30.4-25.3-6.51-6.14 0.872-23.5-13-20.9-8.51-3.47-24.3 1.35-27.2-8.54-0.147-12.1-7.47-15.9-18.7-15.2-12.7-6.99-25.3-14-38-21zm125 19c-2.34 5.48-22.7 20.7-8.47 17.2 15.8-8.23 6.86 12.6 17.3 13.8 11.5 3.72 21.7 6.19 14-8.83-0.83-11.8-15.4-14.8-22.8-22.2zm-213 12 54 54c5.71-11.3-3.22-17.7-10.9-24.6-10.7-9.38-20.2-21.9-31.7-29.4h-11.3zm254 0c-2.49 8.8 3.73 25.2 9.99 13.7 0.544-10 1.66-13.4-9.99-13.7zm-350 20c-24.6 20.8-49.6 41.1-74.9 60.9 2.38 15.4 13.7 5.73 23 2l36-16c-2.62-11-0.372-20.1 9.82-26 8.69-4.97 20.7 1.32 18.3-14.9 4.38-9.15-7.46-3.98-12.1-6.04zm161 44c-10.1 5.81-23 9.32-31.4 16.6-4.24 8.36-1.68 22.4-11 26.5-14.8 6.96-29.7 13.9-44.5 20.9 0.0739 11-0.603 23.6 11 11 10.1-1.51 23 2.87 28.7-8.24 13.4-14.6 26.9-29.1 40.3-43.7 7.69 12.4 12.3 13.1 12.7-2.52 1.67-6.82 20.1-18.3 14-20.5h-19.7zm296 8.99c-9.85 1.35-22.3-2.6-27.4 8.47-12.7 8.22 5.71 11.9 11.4 17.5 8.86-5.93 17.2-12.2 15.7-24l0.217-1.63zm-182 36c11 10.2 18.4 25.8 34.4 28.3 9.52 3.56-5.55 17.3-6.75 25.3 2.41-1.91 20.1-8.76 19.8-17.6 1.04-9.99 5.14-22.4-9.82-19.5-14.8 0.562-25.2-10.1-37.6-16.6zm172 0.998c-9.01 8.59-10 16.6 0.977 23.9 9.18 10 18.4 20 27.5 30.1v-37c-10.8 1.05-21 1.12-24.6-11-1.29-1.99-2.57-3.98-3.86-5.97zm-537 1c-13.9-2.63-16.7 5.04-14.5 17.4v35.5c5.32-8.28 8.3-20 15.1-26.1 12.1-0.17 22.3-1.21 9.68-12.5l-10.3-14.3zm58.5 29.5c11 7.47 21.1 17.6 32.6 23.4h82.3c-29.4-7.53-58.6-17.4-88.2-23.4h-26.7z" fill="#808080" fill-opacity=".9"/></svg>
