<?xml version="1.0" encoding="UTF-8"?>
<svg width="580" height="580" version="1.1" xmlns="http://www.w3.org/2000/svg"><path d="m0 0h580v580h-580v-580z" fill="#e5e5e5" fill-rule="evenodd" opacity=".5"/><path d="m145 0c-12.9 21 29 46.6 22.7 12.1 9.03-19.6-13.3-10-22.7-12.1zm271 0c-16.4 26.5 35.4 58.5 35.5 17 9.85-27-21.7-14.4-35.5-17zm138 0v34.5c30.7 16.9 40.6-46.2 6.75-34.5h-6.75zm-355 16.5c-17.6 35.9 60.6 33.7 31.5 0.571-10.3-1.26-21-0.239-31.5-0.571zm-99.9 0.998c-12.8 31.2 34.4 47.1 29.4 8.32-6.68-9.82-19-9.98-29.4-8.32zm266 0c-15 31.3 34.8 31.9 17.1 1.29-5.1-3.19-11.6-1.41-17.1-1.29zm-74.9 2c-11 27.7 34.5 43.1 29.8 7.75-6.5-9.02-19.9-8.62-29.8-7.75zm-241 4c-35 16.6 19.4 60.3 24.2 19.2 3.31-14.8-10.7-24.6-24.2-19.2zm439 3c-17.2 33.6 44.1 48.1 37.5 8.25-4.94-15.5-25.9-5.58-37.5-8.25zm-316 13c-15.9 19.5 18.6 57.9 24.5 21.3 0.254-12.9-13.7-19.4-24.5-21.3zm94.9 7.99c-40.2 1.55 3.75 70.2 15.8 26.9 3.96-11.1-2.16-27.5-15.8-26.9zm294 5c-35.4-11.4-46.1 52.9-3.85 38.3 10.7-9.68 1.18-26 3.85-38.3zm-245 17c-18.3 33 52.6 38.8 29.7 3.69-8.2-8.34-19.7-2.54-29.7-3.69zm147 0c-15 23.3 29.8 55.8 26.6 17.3 1.69-17-14-19.9-26.6-17.3zm-370 0.998v40c23.1 2.91 36.4-42.5 7.16-40h-7.16zm71.9 23c-14.4 21.6 21 59.1 24.2 19.5 5.94-16-15.9-14.1-24.2-19.5zm242 3c-13.9 25.7 38.1 56.5 30.5 16.4-3.76-13.7-17-21-30.5-16.4zm-385 1v31c27.4 15 31-43 1.26-31zm264 2c-39.8-11.7-15.3 61.4 9.69 27.1 5.84-10-4.61-19.5-9.69-27.1zm270 0c-35.2 10.7-1.71 64 17.8 30.4 15.3-12.4-13.4-20.9-17.8-30.4zm-179 21c-19.6-2.65-41.8 6.18-21.6 25.5 16.8 10.8 34.5-10.2 21.6-25.5zm-140 6.99c-14.9 21.6 20.8 48.1 27.7 25.5-5.02-12.3-18.6-17-27.7-25.5zm272 4c-34.8 1.72 7.68 52.7 14.4 17.3 1.4-8.41-5.67-17.7-14.4-17.3zm-390 13c-15 33.8 49.8 8.75 15.2 0h-15.2zm198 0.998c2.32 16.9 6.61 48.4 22.5 20.4 8.4-15.6-9.53-24.8-22.5-20.4zm-223 16c-43.4-9.61-9.07 56 10.7 15.4-0.354-6.66-6.27-11.1-10.7-15.4zm376 9.78c-44.7-8.8-4.81 65.4 9.48 18.4 2.3-7.24 0.892-19.5-9.48-18.4zm-442 1.21c-20.5 5.13-9.1 40.3-0.723 14.7 0.0358-4.91 0.137-9.83 0.723-14.7zm164 18c-12.8 23 24.9 51 25.4 14.2 1.28-14.6-15.2-15.1-25.4-14.2zm361 5c-17.7 35.6 52 26.5 22.2 0.212-7.32-1.58-14.8 0.246-22.2-0.212zm-431 0.998c-32.7 15.2 16.4 61.1 20.4 23.7 2.3-14.8-2.75-28.4-20.4-23.7zm115 1v43c29.3 17.1 38.1-45.2 14.5-43h-14.5zm181 3c-10.9 5.76-17.9 38.1-2.42 28.1 1.94-9.26 0.799-18.8 2.42-28.1zm-54 1c-44.1 4.67 17.9 59.4 16.7 14.3-0.799-8.07-8.75-14.4-16.7-14.3zm-312 32c-19 4.86-49 17.2-18.2 33 21.5 13.5 17.5-20.7 18.2-33zm241 0c-29.8 28.3 41.4 43.6 17.8 3.29-5.6-2.58-12.1-1.06-17.8-3.29zm-106 11c-32.6-15-15.8 45.8 0.144 26.2 0.0454-8.75-0.516-17.5-0.144-26.2zm288 0.746c-41 19.8 45.8 49 18.4 7.76-4.92-4.66-11.5-7.85-18.4-7.76zm81.7 0.254c-30.1-15.6-44.7 37.5-10.1 32 12.2-6.53 11.3-20.5 10.1-32zm-457 0.998c-6.68 29.7 32.8 55.7 25.9 11 7.16-15.8-17.8-8.14-25.9-11zm112 25c-35.9-3.28-8.44 58.6 10.8 23.2 3.21-9.52-8.26-15.1-10.8-23.2zm71.9 0c-23.1 10.8-0.508 52.1 11.4 23.1-0.683-8.99-9.06-14.7-11.4-23.1zm105 0c-23.4-10.2-58.1 22-21.1 31.5 19.8 5.39 40.3-14.5 21.1-31.5zm-389 12.6v42.4c30.6-2.02 37.3-45.2 0-42.4zm419 24.4c-12.8 28 43.3 42.6 25.6 6.57-5.42-8.92-17-5.83-25.6-6.57zm-348 3c-42.4-2.29 1.92 63.2 16.4 21.1 4.23-10.3-4.13-24.9-16.4-21.1zm54.4 4c-19.4 36.7 53.5 37.6 33.1 1.75-10.7-2.71-22.4-0.435-33.1-1.75zm427 19c-26.8-11.4-58.9 19.9-26 39 22.2 23.8 27.8-26.8 26-39zm-284 1.34c-43.6-11.6-10.7 57.7 8.98 20.6 5.38-8.18 2.1-20.4-8.98-20.6zm-74.2 2.12c-13.9 27 26.1 22.7 30.2 9.72-9.72-4.29-20.9-4.3-30.2-9.72zm295 2.54c-28.6-13.9-46 36.6-10.8 37.5 20.6 8.21 5.49-28.5 10.8-37.5zm-130 3.12c-35.1-14.1-22.3 49.7-0.183 29.9 1.08-9.94-0.353-19.9 0.183-29.9zm31.1 2.83c-12.2 28.4 47.2 30.6 22.7 1.83-6.99-4.27-15.2-1.18-22.7-1.83zm-369 15v38c23.8-2.83 35.7-46.7 0-38zm57 20.3c-30.4 25.1 47.9 22 13 0.0814-4.33-0.0231-8.7 1.03-13-0.0814zm84.1 0.707c-11-1.17-48.5 0.392-21 12.6 8.92-0.473 13.3-9.5 21-12.6zm39.6 0c-16.2 32.7 46.4 41.9 33.3 4.3-7.86-9.44-22.8-1.88-33.3-4.3zm89.7 5.65v37.4c33.3 4.61 38.3-43.1 0-37.4zm69.9 19.1c-14.5 33.1 50.5-0.741 13.8 1.59-4.59-0.537-9.18-1.12-13.8-1.59zm80.5 2.12c-27.1 30.9 38.5 34.3 16.9-0.343-5.69-1.84-11.2 1.65-16.9 0.343zm-300 5.65c-23 8.68-5.22 51.6 8.51 26.1 1.34-9.6-5.61-17.5-8.51-26.1zm53 2.12c-42.3-10.2-7.9 65.7 7.86 21.2-1.21-7.56-6.44-13.7-7.86-21.2zm117 17v36.7c30.1 7.68 30-39.9 0-36.7zm-222 0.371c-19.5-3-42 3.71-26.9 26.2 10.3 22 36.2-12.5 26.9-26.2zm448 0c-6.7 8.79-26.8 34.8-3.38 25.4 3.82-7.93 1.65-17 3.38-25.4zm-289 1.75c-11.9 25.5 24.2 41.6 23.8 8.87-2.78-9.89-16.1-7.65-23.8-8.87zm155 12.7c-41.4-3.89-4.39 66.8 12 19.6 0.376-8.28-7.33-13.8-12-19.6zm-203 12.7c-6.96 27 37.8 41.2 33 8.58-7.58-9.96-22.5-5.46-33-8.58zm-160 1.92c-36.9-10.5-16 60.2 5.27 22.9 3.02-7.27 5.9-21.1-5.27-22.9zm436 0.426c-36.6-11.2-26.9 64.5 2.61 31.7 5.68-9.1 11.2-26.7-2.61-31.7zm-212 16.7c-15.2 30.4 40.7 41.7 30.2 6.47-7.22-8.69-20.2-6.44-30.2-6.47zm-143 6.7c-16.8 32.4 54 22.1 25.7 0.11-8.56-0.959-17.2 0.382-25.7-0.11zm-68.9 19c-19 14.6-25.2 35.4 3.48 43 31.9 19 26-44.3 6.55-42.4-0.534-3.26-9.62 2.83-10-0.571zm357 0c-13.3 20.1 32.1 40.3 12.1 15.2-4.11-5.01-8.06-10.1-12.1-15.2zm-65.8 1.87c-41.7-12.3-1.42 57.8 8.29 19 0.512-7.01-1.35-15.6-8.29-19zm213 16.1c-29.2 0.328-17.8 29.8 1.56 25 0.511-8.4-3.34-16.7-1.56-25zm-90.9 1c0.14 23.7 39 9 18.4-0.445-6.16-0.0702-12.3 0.999-18.4 0.445zm-227 7.99c-11.7 15.7 15.6 42 18.3 22.9-5.91-7.77-12.4-15.1-18.3-22.9zm-106 0.33c-19.6 34 49.2 38.3 26.2 3.68-8.03-4.33-17.6-1.83-26.2-3.68zm-129 17.7c-14.6 24.2 30.3 45.2 26.3 12.5-1.14-13.4-16-15-26.3-12.5zm97.9 2c-12.4 8.07-48.3 17.6-16.7 22.6 23.4 9.36 16.4-8.73 16.7-22.6zm393 0c-18.4 41.7 65 32.1 30.5 0h-30.5zm-195 1.54c-21.5 18.3-1.31 33.4 18.3 25.2 10.2-13.9-3.12-28.6-18.3-25.2zm72.8 0.705c-22.4 14.5 4.33 39.9 15.2 15.1 8.95-13.8-3.67-17.2-15.2-15.1z" fill="#a3a3a3" fill-opacity=".8" opacity=".8"/></svg>
