<svg height="128" viewBox="0 0 33.866666 33.866668" width="128" xmlns="http://www.w3.org/2000/svg"><path d="m26.976574 20.75315c-.08921.0071-.175339.03604-.267075.08897l-2.878484 1.542256c-.365151.172734-.507895.713852-.267077 1.038057l.771553 1.216011-3.323612 1.898159.02967.593176s.444327-.355906.919928-.355906c.449909 0 1.351504.711809 1.899206.711809.477997 0 1.420796-.711809 1.899207-.711809.497914 0 1.401295.711809 1.899206.711809h.326427l-2.700432-4.270856 1.988232-1.038057c.425414-.245477.562907-.672111.385776-.978739-.16339-.282844-.414907-.466153-.682528-.444879zm1.632131 2.461676c-.786681 0-1.424405.637401-1.424405 1.423622 0 .786217.637724 1.423618 1.424405 1.423618s1.424405-.637401 1.424405-1.423618c0-.786221-.637724-1.423622-1.424405-1.423622zm-6.647222 4.982671c-.305242 0-.756601.25802-1.172705.463369l-.01148 1.442709c.436608-.208061.904446-.482457 1.184253-.482457.478824 0 1.392213.71181 1.899205.71181.451539 0 1.41708-.71181 1.899207-.71181.478825 0 1.44504.71181 1.899206.71181.478825 0 1.448549-.71181 1.899208-.71181.282059 0 .767452.278836 1.208557.487473l.03304-1.4404c-.429404-.213203-.928871-.488055-1.241582-.470694-.454167 0-1.391432.711809-1.899208.711809-.42249 0-1.420379-.711809-1.899203-.711809-.478825 0-1.475777.711809-1.899207.711809-.451539 0-1.392216-.711809-1.899206-.711809z" style="opacity:.4;fill:#fff;stroke:#fff;stroke-width:1.11125;stroke-linecap:round;stroke-linejoin:round"/><path d="m26.976574 20.75315c-.08921.0071-.175339.03604-.267075.08897l-2.878484 1.542256c-.365151.172734-.507895.713852-.267077 1.038057l.771553 1.216011-3.323612 1.898159.02967.593176s.444327-.355906.919928-.355906c.449909 0 1.351504.711809 1.899206.711809.477997 0 1.420796-.711809 1.899207-.711809.497914 0 1.401295.711809 1.899206.711809h.326427l-2.700432-4.270856 1.988232-1.038057c.425414-.245477.562907-.672111.385776-.978739-.16339-.282844-.414907-.466153-.682528-.444879zm1.632131 2.461676c-.786681 0-1.424405.637401-1.424405 1.423622 0 .786217.637724 1.423618 1.424405 1.423618s1.424405-.637401 1.424405-1.423618c0-.786221-.637724-1.423622-1.424405-1.423622zm-6.647222 4.982671c-.305242 0-.756601.25802-1.172705.463369l-.01148 1.442709c.436608-.208061.904446-.482457 1.184253-.482457.478824 0 1.392213.71181 1.899205.71181.451539 0 1.41708-.71181 1.899207-.71181.478825 0 1.44504.71181 1.899206.71181.478825 0 1.448549-.71181 1.899208-.71181.282059 0 .767452.278836 1.208557.487473l.03304-1.4404c-.429404-.213203-.928871-.488055-1.241582-.470694-.454167 0-1.391432.711809-1.899208.711809-.42249 0-1.420379-.711809-1.899203-.711809-.478825 0-1.475777.711809-1.899207.711809-.451539 0-1.392216-.711809-1.899206-.711809z" fill="#2f922e" opacity=".5" stroke-width=".949344"/><path d="m26.976574 20.75315c-.08921.0071-.175339.03604-.267075.08897l-2.878484 1.542256c-.365151.172734-.507895.713852-.267077 1.038057l.771553 1.216011-3.323612 1.898159.02967.593176s.444327-.355906.919928-.355906c.449909 0 1.351504.711809 1.899206.711809.477997 0 1.420796-.711809 1.899207-.711809.497914 0 1.401295.711809 1.899206.711809h.326427l-2.700432-4.270856 1.988232-1.038057c.425414-.245477.562907-.672111.385776-.978739-.16339-.282844-.414907-.466153-.682528-.444879zm1.632131 2.461676c-.786681 0-1.424405.637401-1.424405 1.423622 0 .786217.637724 1.423618 1.424405 1.423618s1.424405-.637401 1.424405-1.423618c0-.786221-.637724-1.423622-1.424405-1.423622zm-6.647222 4.982671c-.305242 0-.756601.25802-1.172705.463369l-.01148 1.442709c.436608-.208061.904446-.482457 1.184253-.482457.478824 0 1.392213.71181 1.899205.71181.451539 0 1.41708-.71181 1.899207-.71181.478825 0 1.44504.71181 1.899206.71181.478825 0 1.448549-.71181 1.899208-.71181.282059 0 .767452.278836 1.208557.487473l.03304-1.4404c-.429404-.213203-.928871-.488055-1.241582-.470694-.454167 0-1.391432.711809-1.899208.711809-.42249 0-1.420379-.711809-1.899203-.711809-.478825 0-1.475777.711809-1.899207.711809-.451539 0-1.392216-.711809-1.899206-.711809z" style="opacity:0;fill:#000080;stroke:#fff;stroke-width:1.11125;stroke-linecap:round;stroke-linejoin:round"/></svg>