<svg height="128" viewBox="0 0 33.866666 33.866668" width="128" xmlns="http://www.w3.org/2000/svg"><path d="m26.637163 22.121427c-.06372.0051-.125242.02574-.190768.06355l-2.05606 1.101612c-.260822.123381-.362782.509894-.190769.741469l.551109.868579-2.374008 1.355828.02119.423697s.317376-.254218.657091-.254218c.321364 0 .96536.508435 1.356576.508435.341426 0 1.014854-.508435 1.356576-.508435.355653 0 1.000925.508435 1.356576.508435h.233162l-1.92888-3.050612 1.420166-.741469c.303867-.175341.402076-.480079.275554-.699099-.116707-.202032-.296362-.332967-.48752-.317771zm1.165808 1.75834c-.561915 0-1.017432.455287-1.017432 1.016873 0 .561584.455517 1.01687 1.017432 1.01687s1.017432-.455286 1.017432-1.01687c0-.561586-.455517-1.016873-1.017432-1.016873zm-4.748016 3.559051c-.21803 0-.540429.1843-.837646.330978l-.0082 1.030506c.311863-.148615.646033-.344612.845895-.344612.342017 0 .994438.508436 1.356575.508436.322528 0 1.0122-.508436 1.356576-.508436.342018 0 1.032172.508436 1.356576.508436.342018 0 1.034678-.508436 1.356577-.508436.201471 0 .54818.199169.863255.348195l.0236-1.028857c-.306717-.152288-.663479-.348611-.886844-.33621-.324405 0-.99388.508435-1.356577.508435-.301779 0-1.014557-.508435-1.356574-.508435-.342018 0-1.054126.508435-1.356576.508435-.322528 0-.99444-.508435-1.356576-.508435z" style="opacity:.4;fill:#fff;stroke:#fff;stroke-width:.79375;stroke-linecap:round;stroke-linejoin:round"/><path d="m26.637163 22.121427c-.06372.0051-.125242.02574-.190768.06355l-2.05606 1.101612c-.260822.123381-.362782.509894-.190769.741469l.551109.868579-2.374008 1.355828.02119.423697s.317376-.254218.657091-.254218c.321364 0 .96536.508435 1.356576.508435.341426 0 1.014854-.508435 1.356576-.508435.355653 0 1.000925.508435 1.356576.508435h.233162l-1.92888-3.050612 1.420166-.741469c.303867-.175341.402076-.480079.275554-.699099-.116707-.202032-.296362-.332967-.48752-.317771zm1.165808 1.75834c-.561915 0-1.017432.455287-1.017432 1.016873 0 .561584.455517 1.01687 1.017432 1.01687s1.017432-.455286 1.017432-1.01687c0-.561586-.455517-1.016873-1.017432-1.016873zm-4.748016 3.559051c-.21803 0-.540429.1843-.837646.330978l-.0082 1.030506c.311863-.148615.646033-.344612.845895-.344612.342017 0 .994438.508436 1.356575.508436.322528 0 1.0122-.508436 1.356576-.508436.342018 0 1.032172.508436 1.356576.508436.342018 0 1.034678-.508436 1.356577-.508436.201471 0 .54818.199169.863255.348195l.0236-1.028857c-.306717-.152288-.663479-.348611-.886844-.33621-.324405 0-.99388.508435-1.356577.508435-.301779 0-1.014557-.508435-1.356574-.508435-.342018 0-1.054126.508435-1.356576.508435-.322528 0-.99444-.508435-1.356576-.508435z" fill="#2f922e" opacity=".5" stroke-width=".678103"/></svg>