<?xml version="1.0" encoding="iso-8859-1"?>
<!-- Generator: Adobe Illustrator 19.0.0, SVG Export Plug-In . SVG Version: 6.00 Build 0)  -->
<svg version="1.1" id="Layer_1" xmlns="http://www.w3.org/2000/svg" xmlns:xlink="http://www.w3.org/1999/xlink" x="0px" y="0px"
	 viewBox="0 0 512.001 512.001" style="enable-background:new 0 0 512.001 512.001;" xml:space="preserve">
<g>
	<path style="fill:#96D0EA;" d="M291.681,146.037v36.955H184.437v-14.318c0-12.502,10.135-22.637,22.649-22.637H291.681z"/>
	<path style="fill:#96D0EA;" d="M385.544,165.64l4.288,17.353h-98.151v-36.955h68.824
		C372.375,146.037,382.697,154.122,385.544,165.64z"/>
	<path style="fill:#96D0EA;" d="M400.401,225.758c4.019,16.251-8.284,31.975-25.027,31.975h-173.28
		c-9.748,0-17.657-7.909-17.657-17.657v-57.084h107.244h98.151L400.401,225.758z"/>
</g>
<path style="fill:#B3B3B3;" d="M287.651,362.681c0,5.073-1.078,9.901-3.011,14.248c-5.472,12.291-17.786,20.868-32.104,20.868
	c-14.318,0-26.632-8.577-32.104-20.868c-1.933-4.347-3.011-9.174-3.011-14.248c0-13.791,7.944-25.718,19.508-31.448h31.214
	C279.707,336.962,287.651,348.89,287.651,362.681z"/>
<path style="fill:#666666;" d="M326,362.681c0,6.35-0.808,12.502-2.308,18.372v0.012c-8.167,31.682-36.931,55.081-71.156,55.081
	c-34.775,0-63.903-24.172-71.508-56.627c-1.277-5.401-1.945-11.037-1.945-16.837c0-3.398,0.234-6.737,0.68-10.006v-0.012
	c4.909-12.549,17.118-21.43,31.401-21.43h25.765c-11.072,5.483-18.817,16.638-19.462,29.679c-0.035,0.586-0.047,1.172-0.047,1.769
	c0,19.391,15.724,35.115,35.115,35.115s35.115-15.724,35.115-35.115c0-0.598-0.012-1.183-0.047-1.769
	c-0.644-13.041-8.389-24.195-19.462-29.679h24.664c16.333,0,29.96,11.611,33.065,27.031v0.035
	C325.953,359.752,326,361.204,326,362.681z"/>
<rect x="8.791" y="347.79" style="fill:#F7B239;" width="32.561" height="28.999"/>
<path style="fill:#F95428;" d="M142.128,164.433v212.355H41.352v-28.999V164.433c0-10.158,8.249-18.395,18.407-18.395h63.962
	C133.879,146.037,142.128,154.274,142.128,164.433z"/>
<path style="fill:#F7B239;" d="M444.058,347.8v28.987H372h-45.473v-11.834c0-2.285-0.223-4.511-0.656-6.655c0-0.012,0-0.023,0-0.035
	c-3.105-15.419-16.732-27.031-33.065-27.031h-24.664h-31.214h-25.765c-14.283,0-26.492,8.881-31.401,21.43v0.012
	c-1.5,3.796-2.32,7.944-2.32,12.279v11.834h-35.314V164.433c0-10.158-8.249-18.395-18.407-18.395H59.759
	c-10.158,0-18.407,8.237-18.407,18.395v183.356H8.791V133.817c0-32.01,25.941-57.963,57.951-57.963h282.761
	c26.41,0,49.48,17.856,56.1,43.422l38.454,148.452v69.024V347.8z M375.374,257.733c16.743,0,29.046-15.724,25.027-31.975
	l-10.569-42.766l-4.288-17.353c-2.847-11.518-13.17-19.602-25.039-19.602h-68.824h-84.595c-12.514,0-22.649,10.135-22.649,22.637
	v14.318v57.084c0,9.748,7.909,17.657,17.657,17.657H375.374z"/>
<path style="fill:#999999;" d="M268.142,331.233h-31.214c-11.564,5.73-19.508,17.657-19.508,31.448
	c0,5.073,1.078,9.901,3.011,14.248h64.208c1.933-4.347,3.011-9.174,3.011-14.248C287.651,348.89,279.707,336.962,268.142,331.233z"
	/>
<path style="fill:#4D4D4D;" d="M325.871,358.299v-0.035c-3.105-15.419-16.732-27.031-33.065-27.031h-24.664
	c11.072,5.483,18.817,16.638,19.462,29.679h5.202c13.802,0,25.66,8.284,30.885,20.141c1.5-5.87,2.308-12.021,2.308-18.372
	C326,361.204,325.953,359.752,325.871,358.299z M179.762,352.663v0.012c-0.445,3.269-0.68,6.608-0.68,10.006
	c0,5.8,0.668,11.436,1.945,16.837c5.53-11.037,16.954-18.606,30.136-18.606h6.304c0.644-13.041,8.389-24.195,19.462-29.679h-25.765
	C196.881,331.233,184.672,340.114,179.762,352.663z"/>
<path style="fill:#FFFFFF;" d="M370.884,237.231c-3.947,0-7.535-2.678-8.524-6.682l-13.125-53.112
	c-1.163-4.711,1.712-9.474,6.423-10.639c4.709-1.163,9.475,1.711,10.639,6.422l13.125,53.112c1.163,4.711-1.712,9.474-6.423,10.639
	C372.291,237.147,371.583,237.231,370.884,237.231z"/>
<g>
	<path style="fill:#333333;" d="M202.099,266.518h173.272c10.703,0,20.626-4.833,27.224-13.261c6.598-8.428,8.909-19.22,6.34-29.609
		l-14.86-60.119c-3.826-15.473-17.627-26.278-33.564-26.278H207.082c-17.33,0-31.429,14.099-31.429,31.429v71.395
		C175.653,254.654,187.517,266.518,202.099,266.518z M388.757,242.422c-3.244,4.144-8.123,6.52-13.385,6.52H202.099
		c-4.892,0-8.871-3.979-8.871-8.871v-48.295h189.725l8.92,36.087C393.137,232.972,392,238.279,388.757,242.422z M377.013,167.745
		l1.596,6.457h-78.137v-19.378h60.039C368.348,154.824,375.134,160.137,377.013,167.745z M207.082,154.824h75.815v19.378h-89.669
		v-5.524C193.229,161.038,199.444,154.824,207.082,154.824z"/>
	<path style="fill:#333333;" d="M503.212,367.998H488.48v-8.476c0-4.853-3.933-8.788-8.788-8.788s-8.788,3.934-8.788,8.788v8.476
		h-18.061V267.733c0-0.743-0.094-1.483-0.28-2.203l-38.449-148.453c-7.626-29.444-34.195-50.01-64.612-50.01H66.743
		C29.941,67.067,0,97.009,0,133.811v242.974c0,4.853,3.933,8.788,8.788,8.788h164.774c9.941,34.247,41.57,59.361,78.975,59.361
		c37.411,0,69.045-25.114,78.986-59.361h40.481h72.052h26.849v50.573c0,4.853,3.933,8.788,8.788,8.788
		c4.854,0,8.788-3.934,8.788-8.788v-50.573h14.733c4.854,0,8.788-3.935,8.788-8.788S508.067,367.998,503.212,367.998z
		 M66.743,84.643h282.759c22.407,0,41.98,15.15,47.597,36.84l38.169,147.369v70.16H326.715v0.335
		c-7.767-10.26-20.073-16.904-33.905-16.904h-81.647c-13.677,0-25.858,6.499-33.638,16.565h-26.614V164.437
		c0-14.992-12.197-27.189-27.189-27.189H59.756c-14.992,0-27.188,12.197-27.188,27.189v174.565H17.575V133.811
		C17.575,106.699,39.632,84.643,66.743,84.643z M278.863,362.682c0,14.517-11.811,26.328-26.328,26.328
		s-26.328-11.811-26.328-26.328c0-9.43,4.91-17.947,12.938-22.661h26.78C273.952,344.734,278.863,353.252,278.863,362.682z
		 M133.338,367.998H50.143v-203.56c0-5.301,4.313-9.614,9.612-9.614h63.969c5.301,0,9.614,4.313,9.614,9.614V367.998z
		 M17.575,356.577h14.993v11.422H17.575V356.577z M168.657,367.998h-17.745v-11.413h18.576c-0.542,2.707-0.831,5.503-0.831,8.367
		V367.998z M252.535,427.359c-35.656,0-64.664-29.014-64.664-64.677c0-2.573,0.163-5.164,0.466-7.721
		c3.861-8.784,12.632-14.941,22.827-14.941h3.735c-4.027,6.689-6.266,14.466-6.266,22.661c0,24.208,19.695,43.903,43.903,43.903
		c24.208,0,43.903-19.695,43.903-43.903c0-8.197-2.239-15.974-6.265-22.661h2.639c11.882,0,21.834,8.362,24.319,19.507
		c0.05,1.088,0.082,2.136,0.082,3.154C317.212,398.344,288.199,427.359,252.535,427.359z M372.003,367.998h-36.686v-3.046
		c0-2.709-0.266-5.357-0.752-7.926c-0.021-0.148-0.048-0.292-0.076-0.437h100.78v11.41H372.003z"/>
	<path style="fill:#333333;" d="M69.67,263.769c-4.854,0-8.788,3.935-8.788,8.788v18.78c0,4.853,3.933,8.788,8.788,8.788
		c4.854,0,8.788-3.935,8.788-8.788v-18.78C78.458,267.703,74.523,263.769,69.67,263.769z"/>
</g>
<g>
</g>
<g>
</g>
<g>
</g>
<g>
</g>
<g>
</g>
<g>
</g>
<g>
</g>
<g>
</g>
<g>
</g>
<g>
</g>
<g>
</g>
<g>
</g>
<g>
</g>
<g>
</g>
<g>
</g>
</svg>
