<?xml version="1.0" encoding="UTF-8" standalone="no"?>
<svg
   xmlns:dc="http://purl.org/dc/elements/1.1/"
   xmlns:cc="http://creativecommons.org/ns#"
   xmlns:rdf="http://www.w3.org/1999/02/22-rdf-syntax-ns#"
   xmlns:svg="http://www.w3.org/2000/svg"
   xmlns="http://www.w3.org/2000/svg"
   xmlns:sodipodi="http://sodipodi.sourceforge.net/DTD/sodipodi-0.dtd"
   xmlns:inkscape="http://www.inkscape.org/namespaces/inkscape"
   enable-background="new 0 0 580 580"
   height="580"
   viewBox="0 0 580 580"
   width="580"
   version="1.1"
   id="svg12"
   sodipodi:docname="defibrillator.svg"
   inkscape:version="1.0.1 (3bc2e813f5, 2020-09-07)">
  <metadata
     id="metadata18">
    <rdf:RDF>
      <cc:Work
         rdf:about="">
        <dc:format>image/svg+xml</dc:format>
        <dc:type
           rdf:resource="http://purl.org/dc/dcmitype/StillImage" />
      </cc:Work>
    </rdf:RDF>
  </metadata>
  <defs
     id="defs16" />
  <sodipodi:namedview
     pagecolor="#ffffff"
     bordercolor="#666666"
     borderopacity="1"
     objecttolerance="10"
     gridtolerance="10"
     guidetolerance="10"
     inkscape:pageopacity="0"
     inkscape:pageshadow="2"
     inkscape:window-width="1920"
     inkscape:window-height="1001"
     id="namedview14"
     showgrid="false"
     inkscape:zoom="1.4310345"
     inkscape:cx="290"
     inkscape:cy="290"
     inkscape:window-x="-9"
     inkscape:window-y="-9"
     inkscape:window-maximized="1"
     inkscape:current-layer="svg12" />
  <path
     id="path2"
     style="opacity:0.8;fill:#ffffff;stroke:#ffffff;stroke-width:49.0888;stroke-linecap:round;stroke-linejoin:round"
     d="m 427.43866,25.254328 c 0,21.405642 0,42.811283 0,64.216925 -21.15201,0 -42.30402,0 -63.45603,0 0,21.405647 0,42.811287 0,64.216927 21.15201,0 42.30402,0 63.45603,0 0,21.40564 0,42.81129 0,64.21693 21.14861,0 42.29722,0 63.44583,0 0,-21.40564 0,-42.81129 0,-64.21693 21.15201,0 42.30402,0 63.45603,0 0,-21.40564 0,-42.81128 0,-64.216927 -21.15201,0 -42.30402,0 -63.45603,0 0,-21.405642 0,-42.811283 0,-64.216925 -21.14861,0 -42.29722,0 -63.44583,0 z M 313.02115,183.50989 c -37.62466,0.46984 -70.09159,26.84157 -88.34926,58.19505 -19.66406,-36.25615 -59.48223,-63.51388 -101.94083,-57.83421 -64.729539,5.23248 -108.143927,76.11926 -95.436342,137.37094 11.978408,64.5107 57.641985,116.48654 103.695052,160.4454 29.20186,26.82427 61.06328,50.5718 93.68212,73.04886 77.62885,-53.89225 157.27168,-117.01778 191.56378,-208.32938 21.22043,-54.10538 1.62442,-123.12245 -51.14139,-151.09509 -15.83539,-8.96865 -34.06336,-12.06392 -52.07313,-11.80157 z" />
  <path
     d="m418.56 291.76c-1.77-52.5-44.74-103.35-99.27-103.46-38.99-3.21-73.02 23.31-91.84 55.46-17.69-30.98-49.22-56.92-86.6-55.49-59.507-3.16-106.641 55.55-103.941 112.37.363 52.28 32.499 97.42 64.611 135.99 36.48 41.56 80.56 75.57 125.93 106.84 71.17-49.42 143.49-106.53 179.01-188.02 8.49-20.03 13.58-41.84 12.1-63.69z"
     fill="#fff"
     id="path4" />
  <path
     id="path6"
     style="fill:#da0600;stroke:none"
     d="m 543.09,98.003164 c 0,20.495166 0,40.990336 0,61.485506 -20.25228,0 -40.50457,0 -60.75685,0 0,20.49478 0,40.98956 0,61.48434 -20.24837,0 -40.49675,0 -60.74512,0 0,-20.49478 0,-40.98956 0,-61.48434 -20.25228,0 -40.50457,0 -60.75685,0 0,-20.49517 0,-40.99034 0,-61.485506 20.25228,0 40.50457,0 60.75685,0 0,-20.494388 0,-40.988776 0,-61.483164 20.24837,0 40.49675,0 60.74512,0 0,20.494388 0,40.988776 0,61.483164 20.25228,0 40.50457,0 60.75685,0 z" />
  <path
     id="path8"
     style="fill:#da0600;stroke:none"
     d="M 418.56,291.76 C 417.16478,239.49308 373.41055,188.27134 319.29,188.3 280.68032,185.04003 245.95392,211.69039 227.45,243.76 209.35335,210.94063 174.18495,184.82568 135.30861,188.15306 78.39341,188.90445 34.091987,245.80081 36.909,300.64 c 0.647447,54.17827 34.303499,100.34877 68.05307,139.86431 35.81456,39.8248 78.52786,72.67789 122.48793,102.96569 71.25332,-49.40645 143.36818,-106.49722 179.01,-188.02 8.49751,-20.01932 13.59162,-41.84992 12.1,-63.69 z M 271.91,478.13 c -15.1458,15.06851 -24.68117,36.56401 -44.30676,46.49722 -7.85178,-8.5321 -13.14783,-27.32858 -20.1314,-40.06288 -5.83394,-10.73236 -4.56916,-22.34095 8.31212,-12.50717 16.68,-11.43184 8.29138,-40.48574 14.8477,-58.77924 -0.10048,-10.09289 6.79741,-31.53297 2.03419,-34.53374 -24.3619,15.55975 -46.32842,34.50977 -70.48585,50.36581 8.03012,-72.29113 14.5002,-144.74212 21.78,-217.11 17.20931,12.92587 40.33297,28.14849 38.58331,52.55416 -7.6903,33.99758 -14.43218,68.21362 -22.51331,102.12584 29.00782,-21.11841 58.01564,-42.23683 87.02,-63.36 -11.09939,58.58708 -24.49094,116.7043 -37.84,174.81 7.55197,0.96996 15.13753,-0.67021 22.7,0 z" />
</svg>
