<?xml version="1.0" encoding="UTF-8" standalone="no"?>
<svg
   xmlns:dc="http://purl.org/dc/elements/1.1/"
   xmlns:cc="http://creativecommons.org/ns#"
   xmlns:rdf="http://www.w3.org/1999/02/22-rdf-syntax-ns#"
   xmlns:svg="http://www.w3.org/2000/svg"
   xmlns="http://www.w3.org/2000/svg"
   xmlns:sodipodi="http://sodipodi.sourceforge.net/DTD/sodipodi-0.dtd"
   xmlns:inkscape="http://www.inkscape.org/namespaces/inkscape"
   version="1.0"
   width="580"
   height="580"
   id="svg13"
   sodipodi:docname="emergency_access_point.svg"
   inkscape:version="1.0.1 (3bc2e813f5, 2020-09-07)">
  <defs
     id="defs17" />
  <sodipodi:namedview
     pagecolor="#ffffff"
     bordercolor="#666666"
     borderopacity="1"
     objecttolerance="10"
     gridtolerance="10"
     guidetolerance="10"
     inkscape:pageopacity="0"
     inkscape:pageshadow="2"
     inkscape:window-width="1920"
     inkscape:window-height="1001"
     id="namedview15"
     showgrid="false"
     inkscape:zoom="1.4310345"
     inkscape:cx="290"
     inkscape:cy="290"
     inkscape:window-x="-9"
     inkscape:window-y="-9"
     inkscape:window-maximized="1"
     inkscape:current-layer="svg13"
     inkscape:document-rotation="0" />
  <metadata
     id="metadata25">
    <rdf:RDF>
      <cc:Work
         rdf:about="">
        <dc:format>image/svg+xml</dc:format>
        <dc:type
           rdf:resource="http://purl.org/dc/dcmitype/StillImage" />
      </cc:Work>
    </rdf:RDF>
  </metadata>
  <path
     id="path4145"
     style="opacity:0.8;fill:none;stroke:#ffffff;stroke-width:60;stroke-linecap:round;stroke-linejoin:round;stroke-miterlimit:4;stroke-dasharray:none"
     d="m 526.24672,35.684042 c -23.96645,18.638737 -48.31635,56.365601 -72.03744,63.749444 -7.1538,-7.153801 -14.3076,-14.307602 -21.4614,-21.461403 -7.57083,29.201757 -15.14165,58.403507 -22.71248,87.605257 24.57233,-9.97959 71.99922,-14.07124 83.00182,-27.53349 -7.15381,-7.15381 -14.30761,-14.30761 -21.46141,-21.46141 19.55683,-23.686753 56.32149,-47.478857 64.88498,-71.317642 -3.33766,-3.26366 -6.70137,-6.504247 -10.21407,-9.580756 z M 48.798916,41.199506 c -29.049853,19.991903 23.292866,39.81581 33.494668,59.823034 18.429706,12.47768 24.661426,24.95499 4.865354,37.2257 -23.120278,17.17484 29.661382,13.84888 40.255302,21.92059 14.51759,1.15791 48.99487,22.04853 33.89535,-5.99712 C 152.76254,135.10737 150.31445,92.788798 138.29001,87.334751 131.1362,94.488551 123.9824,101.64235 116.8286,108.79615 93.476695,86.952399 71.400463,63.805264 48.798916,41.199506 Z M 229.41716,119.12577 c 0,36.75427 0,73.50853 0,110.2628 -36.41206,0 -72.82412,0 -109.23618,0 0,40.01722 0,80.03443 0,120.05165 36.77258,0 73.54515,0 110.31773,0 0,36.77258 0,73.54515 0,110.31773 40.01721,0 80.03443,0 120.05164,0 0,-36.41206 0,-72.82412 0,-109.23618 36.77258,0 73.54515,0 110.31773,0 0,-40.01722 0,-80.03443 0,-120.05165 -36.41206,0 -72.82412,0 -109.23618,0 0,-36.41206 0,-72.82412 0,-109.23618 -40.73916,-0.6474 -81.47868,-1.28368 -122.21474,-2.10817 z m 185.97105,290.93597 c 9.93154,24.55022 13.30782,72.06117 26.6146,83.05463 7.15381,-7.15381 14.30761,-14.30761 21.46141,-21.46141 22.71247,22.71247 45.42495,45.42495 68.13742,68.13742 7.07686,-6.91005 18.31404,-13.82027 4.7946,-20.72947 -19.6965,-19.6965 -39.393,-39.39299 -59.0895,-59.08949 8.54464,-8.54394 17.08928,-17.08787 25.63392,-25.63181 -29.2835,-7.72644 -58.58032,-15.4403 -87.55245,-24.27987 z m -244.42948,6.37944 c -29.18344,7.73348 -58.36689,15.46695 -87.550331,23.20043 8.291857,8.29186 16.583714,16.58371 24.875571,24.87557 -22.35196,22.71247 -44.703919,45.42495 -67.055879,68.13742 6.909382,7.07618 13.802361,18.29598 20.792947,4.85858 20.035854,-19.71783 40.071712,-39.43565 60.107562,-59.15348 8.54394,8.54464 17.08787,17.08928 25.63181,25.63392 7.73277,-29.18415 15.46555,-58.36829 23.19832,-87.55244 z" />
  <path
     id="polygon11"
     style="fill:#da0600;fill-opacity:1;stroke:none;stroke-width:1.08155"
     d="m 83.408399,439.64119 c 8.291857,8.29185 16.583714,16.58371 24.875571,24.87556 -22.35196,22.71248 -44.703919,45.42495 -67.055879,68.13743 6.908875,7.07674 13.801174,18.29756 20.792103,4.85984 20.035855,-19.71782 40.071706,-39.43565 60.107566,-59.15347 8.54422,8.54422 17.08843,17.08843 25.63265,25.63265 7.73306,-29.18373 15.46611,-58.36745 23.19917,-87.55118 -29.18373,7.73306 -58.36745,15.46611 -87.551181,23.19917 z m 355.179831,56.88934 c 8.29185,-8.29186 16.58371,-16.58371 24.87556,-24.87557 22.71247,22.71247 45.42495,45.42495 68.13742,68.13742 7.07741,-6.90954 18.31563,-13.81909 4.79587,-20.72863 -19.6965,-19.6965 -39.39299,-39.39299 -59.08949,-59.08949 8.54422,-8.54422 17.08843,-17.08843 25.63265,-25.63265 -26.70794,-3.72831 -70.83773,-25.36999 -86.10183,-19.02429 7.42595,27.02363 14.55198,54.12829 21.74982,81.21321 z M 229.41716,229.38857 c -36.41206,0 -72.82412,0 -109.23618,0 0,40.01722 0,80.03443 0,120.05165 36.77258,0 73.54515,0 110.31773,0 0,36.77258 0,73.54515 0,110.31773 40.01721,0 80.03443,0 120.05164,0 0,-36.41206 0,-72.82412 0,-109.23618 36.77258,0 73.54515,0 110.31773,0 0,-40.01722 0,-80.03443 0,-120.05165 -36.41206,0 -72.82412,0 -109.23618,0 0,-36.41206 0,-72.82412 0,-109.23618 -40.73916,-0.6474 -81.47868,-1.28453 -122.21474,-2.10902 0,36.75455 0,73.5091 0,110.26365 z M 36.036668,54.178062 c 18.65711,23.747543 56.668564,47.639018 63.641709,71.551578 -7.1538,7.15381 -14.3076,14.30761 -21.4614,21.46141 26.518803,3.74799 71.082063,25.29106 86.103393,17.75323 C 155.50615,140.65606 150.51335,101.49056 139.42764,86.196697 131.89449,93.729848 124.36133,101.263 116.82818,108.79615 92.393357,90.221902 69.265123,53.011763 45.618494,44.444145 42.424568,47.6888 39.215145,50.918216 36.036668,54.178062 Z M 457.62344,102.84765 c -8.29185,-8.291856 -16.58371,-16.583711 -24.87556,-24.875567 -7.57083,29.201757 -15.14165,58.403507 -22.71248,87.605257 24.57214,-9.97952 71.99901,-14.07039 83.0014,-27.53265 -7.15381,-7.1538 -14.30761,-14.3076 -21.46141,-21.4614 C 491.13235,92.896395 527.89661,69.104696 536.46057,45.265445 518.47842,23.563548 500.96564,68.924218 483.20064,77.632621 474.63021,85.9921 466.089,94.38185 457.62344,102.84765 Z" />
</svg>
