<?xml version="1.0" encoding="iso-8859-1"?>
<!-- Generator: Adobe Illustrator 19.0.0, SVG Export Plug-In . SVG Version: 6.00 Build 0)  -->
<svg version="1.1" id="Capa_1" xmlns="http://www.w3.org/2000/svg" xmlns:xlink="http://www.w3.org/1999/xlink" x="0px" y="0px"
	 viewBox="0 0 448.908 448.908" style="enable-background:new 0 0 448.908 448.908;" xml:space="preserve">
<path id="XMLID_650_" d="M439.408,422.27h-24.054V17.139c0-5.247-4.253-9.5-9.5-9.5s-9.5,4.253-9.5,9.5v16.413H233.952V17.139
	c0-5.247-4.253-9.5-9.5-9.5s-9.5,4.253-9.5,9.5v16.413H52.551V17.139c0-5.247-4.253-9.5-9.5-9.5s-9.5,4.253-9.5,9.5V422.27H9.5
	c-5.247,0-9.5,4.253-9.5,9.5s4.253,9.5,9.5,9.5h67.104c5.247,0,9.5-4.253,9.5-9.5s-4.253-9.5-9.5-9.5H52.551v-58.743h162.401v58.743
	H190.9c-5.247,0-9.5,4.253-9.5,9.5s4.253,9.5,9.5,9.5h67.107c5.247,0,9.5-4.253,9.5-9.5s-4.253-9.5-9.5-9.5h-24.056V52.552h162.402
	V422.27h-24.051c-5.247,0-9.5,4.253-9.5,9.5s4.253,9.5,9.5,9.5h67.104c5.247,0,9.5-4.253,9.5-9.5S444.655,422.27,439.408,422.27z
	 M214.952,344.526H52.551v-32.83h162.401V344.526z M214.952,292.696H52.551v-32.828h162.401V292.696z M214.952,240.868H52.551
	v-32.829h162.401V240.868z M214.952,189.039H52.551v-32.828h162.401V189.039z M214.952,137.211H52.551v-32.829h162.401V137.211z
	 M214.952,85.382H52.551v-32.83h162.401V85.382z"/>
<g>
</g>
<g>
</g>
<g>
</g>
<g>
</g>
<g>
</g>
<g>
</g>
<g>
</g>
<g>
</g>
<g>
</g>
<g>
</g>
<g>
</g>
<g>
</g>
<g>
</g>
<g>
</g>
<g>
</g>
</svg>
