<?xml version="1.0" encoding="UTF-8"?>
<svg width="580" height="580" version="1.1" xmlns="http://www.w3.org/2000/svg"><path d="m274 30.4c-10.6 22.2-45.7-9.24-50.5 23-13.4 32.5-16.1 68.1-22 102-1.32 34.8 6.55-22.1 11.1-32.3 7.11-25.2 16.8-49.9 30.6-72.3 20.4 32.4-8.59 69.1-0.975 104 6.09 2.98 4.96-41.9 11.4-55.4 10.5-12.1 6.88 27.7 10.8 35.1 6.34 46.9 10.4 94 13.3 141-6.89-26.3-2.88-77-44.6-67.6-33.3-1.43-71.8-14.9-101 9-37.5 30.6-51.6 79.4-68.5 123-15.3 47.3-23.8 96.4-31 146 18.9-82.9 41-168 92.7-238 22.6-16.1-13.6 32.3-13.4 45.5-22.7 61.5-30.8 127-35.8 192 16.2-85.3 26-178 82-248 16-17.5 27.1-2.47 11.7 11.9-28.8 72.8-40 151-45.2 229 17.9-83 32.7-168 70.4-245 30.3 13 21.4 50.3 15.8 75.7-9.06 55.9-13.5 113-12.7 169 16.8-66.6 15.3-136 31.5-203 27.6 59.5 38.3 125 49.4 189-5.41 35.9-52 16.7-74.9 32.7-31.7 9.92-62.5 22.8-95.1 29.6-20.6-11-61.2 18.5-20.2 17.1 140 0.841 279-0.102 419 0.398-9.15-34.3-58.7-8.03-81.8-29.5-39.9-13.1-79.8-28.2-122-32.4-12.6-32.8 8.47-66.1 9.15-99.3 7.78-35.4 18.6-70.1 32.6-104 15.9 39.7 13.8 83.5 20.7 125 2.39 21.3 7.9 61.1 12.9 70.3 0.889-72.8-7.5-145-21.3-217 12.4-36.4 48-2.36 44.6 22.8 23.6 63.9 35.9 131 50.2 197-5.38-84.2-18.6-169-52.6-247 29.6 0.766 38.6 36.5 51.1 57.9 28.9 61.8 37.5 130 50.1 197-6.77-86.5-18.8-176-64.4-252 49.7 45.1 67.4 113 88.4 174 6.81 21.3 16.5 65.9 18.7 73.5-14.1-91.2-32-188-93.2-261-27.9-25.1-68.2-17-102-12.7-32.7-10.7-47 25.1-45.8 51.3-6.05 18.1 0.518-26 0.222-33.9 3.88-46.8 9.4-93.6 17.2-140 8.68 22.8 8.83 65.7 15.7 77.5 3.92-35.5-16.6-70.9-4.75-106 28.4 18.5 27.2 57.4 38.7 86.1 2.97 14.2 9.79 50.5 5.98 17-3.85-41.3-11-83-28.1-121-10.9-16.1-34.8 12.3-41.6-8.69-11.5 7.17-21.8 37.2-24.6 6.74-1.77-3.24-4.61-6.09-8.23-7.16zm-2.25 29.6c21.4 30.9 6.3 69.6 12.5 104 0.0907 10.6 1.78 65.6-0.759 33.3-3.8-45.2-8.41-90.3-16.7-135 1.43-1.27 3.04-2.03 4.89-2.46zm34.5 0c6.35 36.4-10.5 71.8-9.25 108-1.17 9.55-3.3 44.4-3.85 38.5 0.979-47.8-0.535-95.8 5.76-143 2.18-1.86 4.53-2.94 7.34-3.46zm-57.7 166c22.7 35.9 22.5 79.7 27.4 120-6.47-39.1-15.9-78-31.3-115 1.23-1.99 2.53-3.92 3.9-5.81zm80.8 0c-0.454 37.3-23.7 69.7-25 107-2.38 0.868 3.03-36.7 4.83-49.9 3.33-20 9.07-40.1 20.2-57.3zm-105 2c4.32-0.281-1.95 4.8 0 0zm129 0c1.97 4.81-4.33-0.258 0 0zm-116 18.5c6.75 12 13 38.2 3.05 11-1.85-3.33-3.72-7.07-3.05-11zm103 0c-1.43 12.7-15.9 39-5.2 12.2 1.56-4.14 3.26-8.22 5.2-12.2z" opacity=".8" stroke="#fff" stroke-linejoin="round" stroke-width="40"/><path d="m274 30.4c-2.45 0.091-5.24 1.94-8.42 6.26-1.54 3.08-2.97 6.2-4.31 9.34-2.33-4.73-5.33-9.13-9.29-13-32.1-4.57-32.9 38.6-39.8 60.4-7.06 29.3-11.1 59.3-12.5 89.4 7.86-45.6 18.9-91.8 43.6-132 4.79 5.17 7.88 11.1 10 17.5-9.18 32.6-10.5 67.5-11.6 101 4.08-13.8 5.99-44.5 10.5-64.6 1.41-4.14 2.9-11.7 4.84-19.5 1.64 11.1 2.41 22.5 5.36 32.9 7.38 52.3 12.1 105 15.4 158-3.51-20.7-7.98-41.2-13.8-61.5-2.51-6.64-9.27-12-16.7-10.1-5.6 2.48-9.92 5.95-13.3 10.1-7.82-8.18-18.3-12.7-31.1-10.1h-0.01c-0.93 0.67-1.83 1.35-2.72 2.05-1.58-0.76-3.2-1.44-4.87-2.05-6.15-1.17-11.9-1-17.3 0.21-0.36-0.07-0.73-0.14-1.09-0.21-35.9-6.72-62.4 26-77.6 54-39.4 69.4-55 149-66.3 227 16.9-78.8 40.2-158 83.1-226 7.06-7.92 15.4-17.7 24.7-25.2-5.5 8.08-10 16.8-13.6 24.8-34.7 70.4-44.6 150-50.8 227 15.2-80.2 25-165 71.5-235 7.41-11.9 20.3-22 33.6-25.4 0.24 0.11 0.48 0.22 0.72 0.34-15.4 22.4-22 51-29.9 76.5-15.1 57.5-24.2 117-27.3 176 17.9-82.9 32.8-168 70.4-245 9.73 6.77 17.7 15.2 24.4 24.7-1.15 7.42-2.3 14.7-4.18 21.1-11 65.8-18.4 132-17 199 15.4-58.1 14.3-119 26.4-177 1.89-8.31 3.38-17 5.06-25.6 10.8 21.3 17.6 45.5 24.2 67.6 6.09 21.2 11.3 42.7 15.8 64.4 2.57 18.6 4.92 37.1 7.75 55.3 1.53 5.53 1.88 12.6 2 20.2-50.2 2.22-98.8 22.3-146 38.3-21.6 8.54-53.1 3.44-69.8 12.3-1.56 18.2 19.8 8.45 30.7 10.7h389c10.9-2.25 32.3 7.53 30.7-10.7-16.6-8.86-48.2-3.76-69.8-12.3-47.2-16-95.9-36.1-146-38.3 0.13-7.51 0.47-14.6 2-20.2 2.83-18.2 5.18-36.8 7.76-55.3 4.49-21.6 9.7-43.1 15.8-64.4 6.58-22.1 13.3-46.3 24.2-67.6 1.68 8.64 3.17 17.3 5.06 25.6 12.2 58.7 11.1 119 26.4 177 1.32-66.7-6.1-133-17-199-1.88-6.46-3.03-13.7-4.18-21.1 6.67-9.51 14.6-18 24.4-24.7 37.7 76.6 52.6 162 70.4 245-3.16-59.4-12.2-119-27.3-176-7.96-25.6-14.6-54.2-29.9-76.5 0.24-0.12 0.48-0.23 0.72-0.34 13.2 3.41 26.2 13.5 33.6 25.4 46.6 69.3 56.4 155 71.5 235-6.19-77.3-16.1-156-50.8-227-3.55-8.03-8.07-16.7-13.6-24.8 9.34 7.48 17.6 17.3 24.7 25.2 42.9 68.9 66.2 148 83.1 226-11.4-78.2-26.9-158-66.3-227-15.2-28-41.7-60.8-77.6-54-0.36 0.07-0.73 0.14-1.09 0.21-5.4-1.21-11.2-1.38-17.3-0.21-1.67 0.6-3.29 1.29-4.87 2.05-0.89-0.7-1.79-1.38-2.72-2.05h-0.01c-12.8-2.57-23.3 1.92-31.1 10.1-3.42-4.15-7.74-7.62-13.3-10.1-7.4-1.93-14.2 3.46-16.7 10.1-5.8 20.3-10.3 40.8-13.8 61.5 3.29-52.7 7.99-105 15.4-158 2.95-10.4 3.72-21.8 5.36-32.9 1.95 7.77 3.43 15.3 4.84 19.5 4.52 20.1 6.43 50.8 10.5 64.6-1.06-33.6-2.37-68.5-11.6-101 2.13-6.38 5.23-12.3 10-17.5 24.6 39.7 35.7 85.9 43.6 132-1.35-30.1-5.41-60.1-12.5-89.4-6.87-21.8-7.68-65-39.8-60.4-3.96 3.87-6.96 8.26-9.29 13-1.34-3.15-2.77-6.26-4.31-9.34-14.5-19.7-21 12-23.4 27.9-1.95-12.4-6.29-34.5-15-34.2zm-2.25 29.6c2.17-0.112 4.6 0.92 7.34 3.46 5.71 39.8 4.5 80.5 5.6 121 0.15 10.7 0.28 21.4 0.39 32-3.09-40.9-7.2-81.8-12.9-122-1.89-10.1-2.93-21-5.33-31.3 1.47-1.47 3.09-2.37 4.89-2.46zm34.5 0c1.8 0.093 3.42 0.991 4.89 2.46-2.4 10.4-3.44 21.3-5.33 31.3-5.69 40.7-9.8 81.5-12.9 122 0.11-10.7 0.24-21.4 0.39-32 1.1-40.3-0.11-80.9 5.6-121 2.74-2.54 5.17-3.57 7.34-3.46zm-57.7 166c12.6 18.5 18.3 43.9 21.7 66.8 2.05 17.9 3.96 35.8 5.73 53.6-6.5-39.2-15.9-77.8-31.3-115 1.2-1.99 2.49-3.93 3.9-5.81zm80.8 0c1.41 1.88 2.7 3.82 3.9 5.81-15.4 36.8-24.8 75.4-31.3 115 1.77-17.9 3.68-35.8 5.73-53.7 3.34-23 9.05-48.3 21.7-66.8zm-105 2c0.51 0.43 1 0.89 1.49 1.37-0.05 0.14-0.11 0.28-0.16 0.42-0.44-0.6-0.88-1.2-1.33-1.79zm129 0c-0.45 0.59-0.89 1.19-1.33 1.8-0.05-0.15-0.11-0.29-0.16-0.43 0.49-0.48 0.98-0.94 1.49-1.37zm-116 18.5c4.79 9.81 8.23 20.6 10.6 28.1 0.88 2.86 1.73 5.74 2.57 8.61-4.12-11.7-8.71-23.2-13.9-34.6 0.25-0.71 0.51-1.42 0.77-2.13zm103 0c0.26 0.71 0.52 1.42 0.77 2.13-5.18 11.3-9.77 22.9-13.9 34.6 0.83-2.88 1.68-5.75 2.56-8.61 2.32-7.44 5.76-18.3 10.6-28.1z" fill="#0073be"/></svg>
