<svg xmlns="http://www.w3.org/2000/svg" xmlns:xlink="http://www.w3.org/1999/xlink" version="1.1" width="256" height="256" viewBox="0 0 256 256" xml:space="preserve">
<desc>Created with Fabric.js 1.7.22</desc>
<defs>
</defs>
<g transform="translate(128 128) scale(0.72 0.72)" style="">
	<g style="stroke: none; stroke-width: 0; stroke-dasharray: none; stroke-linecap: butt; stroke-linejoin: miter; stroke-miterlimit: 10; fill: none; fill-rule: nonzero; opacity: 1;" transform="translate(-175.05 -175.05000000000004) scale(3.89 3.89)" >
	<path d="M 78.792 22.551 H 11.208 V 5.074 C 11.208 2.272 13.48 0 16.282 0 h 57.436 c 2.802 0 5.074 2.272 5.074 5.074 V 22.551 z" style="stroke: none; stroke-width: 1; stroke-dasharray: none; stroke-linecap: butt; stroke-linejoin: miter; stroke-miterlimit: 10; fill: rgb(240,199,100); fill-rule: nonzero; opacity: 1;" transform=" matrix(1 0 0 1 0 0) " stroke-linecap="round" />
	<rect x="7.02" y="31.18" rx="0" ry="0" width="75.97" height="50.2" style="stroke: none; stroke-width: 1; stroke-dasharray: none; stroke-linecap: butt; stroke-linejoin: miter; stroke-miterlimit: 10; fill: rgb(233,92,102); fill-rule: nonzero; opacity: 1;" transform=" matrix(1 0 0 1 0 0) "/>
	<path d="M 87.522 90 H 2.478 v -4.927 c 0 -2.043 1.656 -3.7 3.7 -3.7 h 77.643 c 2.043 0 3.7 1.656 3.7 3.7 V 90 z" style="stroke: none; stroke-width: 1; stroke-dasharray: none; stroke-linecap: butt; stroke-linejoin: miter; stroke-miterlimit: 10; fill: rgb(211,178,178); fill-rule: nonzero; opacity: 1;" transform=" matrix(1 0 0 1 0 0) " stroke-linecap="round" />
	<path d="M 83.822 31.178 H 6.178 c -2.043 0 -3.7 -1.656 -3.7 -3.7 v -4.927 h 85.043 v 4.927 C 87.522 29.521 85.865 31.178 83.822 31.178 z" style="stroke: none; stroke-width: 1; stroke-dasharray: none; stroke-linecap: butt; stroke-linejoin: miter; stroke-miterlimit: 10; fill: rgb(211,178,178); fill-rule: nonzero; opacity: 1;" transform=" matrix(1 0 0 1 0 0) " stroke-linecap="round" />
	<rect x="18.3" y="37.29" rx="0" ry="0" width="10.49" height="14.56" style="stroke: none; stroke-width: 1; stroke-dasharray: none; stroke-linecap: butt; stroke-linejoin: miter; stroke-miterlimit: 10; fill: rgb(240,199,100); fill-rule: nonzero; opacity: 1;" transform=" matrix(1 0 0 1 0 0) "/>
	<rect x="61.21" y="37.29" rx="0" ry="0" width="10.49" height="14.56" style="stroke: none; stroke-width: 1; stroke-dasharray: none; stroke-linecap: butt; stroke-linejoin: miter; stroke-miterlimit: 10; fill: rgb(240,199,100); fill-rule: nonzero; opacity: 1;" transform=" matrix(1 0 0 1 0 0) "/>
	<rect x="39.75" y="37.29" rx="0" ry="0" width="10.49" height="14.56" style="stroke: none; stroke-width: 1; stroke-dasharray: none; stroke-linecap: butt; stroke-linejoin: miter; stroke-miterlimit: 10; fill: rgb(240,199,100); fill-rule: nonzero; opacity: 1;" transform=" matrix(1 0 0 1 0 0) "/>
	<rect x="18.3" y="60.28" rx="0" ry="0" width="10.49" height="14.56" style="stroke: none; stroke-width: 1; stroke-dasharray: none; stroke-linecap: butt; stroke-linejoin: miter; stroke-miterlimit: 10; fill: rgb(240,199,100); fill-rule: nonzero; opacity: 1;" transform=" matrix(1 0 0 1 0 0) "/>
	<rect x="61.21" y="60.28" rx="0" ry="0" width="10.49" height="14.56" style="stroke: none; stroke-width: 1; stroke-dasharray: none; stroke-linecap: butt; stroke-linejoin: miter; stroke-miterlimit: 10; fill: rgb(240,199,100); fill-rule: nonzero; opacity: 1;" transform=" matrix(1 0 0 1 0 0) "/>
	<rect x="39.75" y="60.28" rx="0" ry="0" width="10.49" height="21.1" style="stroke: none; stroke-width: 1; stroke-dasharray: none; stroke-linecap: butt; stroke-linejoin: miter; stroke-miterlimit: 10; fill: rgb(234,208,199); fill-rule: nonzero; opacity: 1;" transform=" matrix(1 0 0 1 0 0) "/>
	<path d="M 22.757 17.568 c -0.565 0 -1.023 -0.458 -1.023 -1.023 V 6.787 c 0 -0.565 0.458 -1.023 1.023 -1.023 c 0.565 0 1.023 0.458 1.023 1.023 v 9.759 C 23.779 17.11 23.321 17.568 22.757 17.568 z" style="stroke: none; stroke-width: 1; stroke-dasharray: none; stroke-linecap: butt; stroke-linejoin: miter; stroke-miterlimit: 10; fill: rgb(171,64,71); fill-rule: nonzero; opacity: 1;" transform=" matrix(1 0 0 1 0 0) " stroke-linecap="round" />
	<path d="M 28.148 17.568 c -0.565 0 -1.023 -0.458 -1.023 -1.023 V 6.787 c 0 -0.565 0.458 -1.023 1.023 -1.023 c 0.565 0 1.023 0.458 1.023 1.023 v 9.759 C 29.171 17.11 28.713 17.568 28.148 17.568 z" style="stroke: none; stroke-width: 1; stroke-dasharray: none; stroke-linecap: butt; stroke-linejoin: miter; stroke-miterlimit: 10; fill: rgb(171,64,71); fill-rule: nonzero; opacity: 1;" transform=" matrix(1 0 0 1 0 0) " stroke-linecap="round" />
	<path d="M 28.148 12.689 h -5.391 c -0.565 0 -1.023 -0.458 -1.023 -1.023 s 0.458 -1.023 1.023 -1.023 h 5.391 c 0.565 0 1.023 0.458 1.023 1.023 S 28.713 12.689 28.148 12.689 z" style="stroke: none; stroke-width: 1; stroke-dasharray: none; stroke-linecap: butt; stroke-linejoin: miter; stroke-miterlimit: 10; fill: rgb(171,64,71); fill-rule: nonzero; opacity: 1;" transform=" matrix(1 0 0 1 0 0) " stroke-linecap="round" />
	<path d="M 35.641 17.568 h -0.519 c -1.908 0 -3.459 -1.552 -3.459 -3.459 V 9.223 c 0 -1.908 1.552 -3.459 3.459 -3.459 h 0.519 c 1.908 0 3.459 1.552 3.459 3.459 v 4.886 C 39.1 16.017 37.548 17.568 35.641 17.568 z M 35.122 7.809 c -0.78 0 -1.414 0.634 -1.414 1.414 v 4.886 c 0 0.78 0.634 1.414 1.414 1.414 h 0.519 c 0.78 0 1.414 -0.634 1.414 -1.414 V 9.223 c 0 -0.78 -0.634 -1.414 -1.414 -1.414 H 35.122 z" style="stroke: none; stroke-width: 1; stroke-dasharray: none; stroke-linecap: butt; stroke-linejoin: miter; stroke-miterlimit: 10; fill: rgb(171,64,71); fill-rule: nonzero; opacity: 1;" transform=" matrix(1 0 0 1 0 0) " stroke-linecap="round" />
	<path d="M 46.97 7.809 h -5.392 c -0.565 0 -1.023 -0.458 -1.023 -1.023 s 0.458 -1.023 1.023 -1.023 h 5.392 c 0.565 0 1.023 0.458 1.023 1.023 S 47.535 7.809 46.97 7.809 z" style="stroke: none; stroke-width: 1; stroke-dasharray: none; stroke-linecap: butt; stroke-linejoin: miter; stroke-miterlimit: 10; fill: rgb(171,64,71); fill-rule: nonzero; opacity: 1;" transform=" matrix(1 0 0 1 0 0) " stroke-linecap="round" />
	<path d="M 44.273 17.568 c -0.565 0 -1.023 -0.458 -1.023 -1.023 V 6.787 c 0 -0.565 0.458 -1.023 1.023 -1.023 s 1.023 0.458 1.023 1.023 v 9.759 C 45.296 17.11 44.838 17.568 44.273 17.568 z" style="stroke: none; stroke-width: 1; stroke-dasharray: none; stroke-linecap: butt; stroke-linejoin: miter; stroke-miterlimit: 10; fill: rgb(171,64,71); fill-rule: nonzero; opacity: 1;" transform=" matrix(1 0 0 1 0 0) " stroke-linecap="round" />
	<path d="M 56.568 7.809 h -5.392 c -0.565 0 -1.023 -0.458 -1.023 -1.023 s 0.457 -1.023 1.023 -1.023 h 5.392 c 0.565 0 1.023 0.458 1.023 1.023 S 57.133 7.809 56.568 7.809 z" style="stroke: none; stroke-width: 1; stroke-dasharray: none; stroke-linecap: butt; stroke-linejoin: miter; stroke-miterlimit: 10; fill: rgb(171,64,71); fill-rule: nonzero; opacity: 1;" transform=" matrix(1 0 0 1 0 0) " stroke-linecap="round" />
	<path d="M 51.175 17.568 c -0.565 0 -1.023 -0.458 -1.023 -1.023 V 6.787 c 0 -0.565 0.457 -1.023 1.023 -1.023 s 1.023 0.458 1.023 1.023 v 9.759 C 52.198 17.11 51.741 17.568 51.175 17.568 z" style="stroke: none; stroke-width: 1; stroke-dasharray: none; stroke-linecap: butt; stroke-linejoin: miter; stroke-miterlimit: 10; fill: rgb(171,64,71); fill-rule: nonzero; opacity: 1;" transform=" matrix(1 0 0 1 0 0) " stroke-linecap="round" />
	<path d="M 56.568 17.568 h -5.392 c -0.565 0 -1.023 -0.458 -1.023 -1.023 c 0 -0.565 0.457 -1.023 1.023 -1.023 h 5.392 c 0.565 0 1.023 0.458 1.023 1.023 C 57.59 17.11 57.133 17.568 56.568 17.568 z" style="stroke: none; stroke-width: 1; stroke-dasharray: none; stroke-linecap: butt; stroke-linejoin: miter; stroke-miterlimit: 10; fill: rgb(171,64,71); fill-rule: nonzero; opacity: 1;" transform=" matrix(1 0 0 1 0 0) " stroke-linecap="round" />
	<path d="M 56.568 12.689 h -5.392 c -0.565 0 -1.023 -0.458 -1.023 -1.023 s 0.457 -1.023 1.023 -1.023 h 5.392 c 0.565 0 1.023 0.458 1.023 1.023 S 57.133 12.689 56.568 12.689 z" style="stroke: none; stroke-width: 1; stroke-dasharray: none; stroke-linecap: butt; stroke-linejoin: miter; stroke-miterlimit: 10; fill: rgb(171,64,71); fill-rule: nonzero; opacity: 1;" transform=" matrix(1 0 0 1 0 0) " stroke-linecap="round" />
	<path d="M 61.852 17.568 c -0.565 0 -1.023 -0.458 -1.023 -1.023 V 6.787 c 0 -0.565 0.457 -1.023 1.023 -1.023 s 1.023 0.458 1.023 1.023 v 9.759 C 62.875 17.11 62.417 17.568 61.852 17.568 z" style="stroke: none; stroke-width: 1; stroke-dasharray: none; stroke-linecap: butt; stroke-linejoin: miter; stroke-miterlimit: 10; fill: rgb(171,64,71); fill-rule: nonzero; opacity: 1;" transform=" matrix(1 0 0 1 0 0) " stroke-linecap="round" />
	<path d="M 67.243 17.568 h -5.391 c -0.565 0 -1.023 -0.458 -1.023 -1.023 c 0 -0.565 0.457 -1.023 1.023 -1.023 h 5.391 c 0.565 0 1.023 0.458 1.023 1.023 C 68.266 17.11 67.809 17.568 67.243 17.568 z" style="stroke: none; stroke-width: 1; stroke-dasharray: none; stroke-linecap: butt; stroke-linejoin: miter; stroke-miterlimit: 10; fill: rgb(171,64,71); fill-rule: nonzero; opacity: 1;" transform=" matrix(1 0 0 1 0 0) " stroke-linecap="round" />
</g>
</g>
</svg>