<?xml version="1.0" encoding="UTF-8" standalone="no"?>
<svg
   xmlns:dc="http://purl.org/dc/elements/1.1/"
   xmlns:cc="http://creativecommons.org/ns#"
   xmlns:rdf="http://www.w3.org/1999/02/22-rdf-syntax-ns#"
   xmlns:svg="http://www.w3.org/2000/svg"
   xmlns="http://www.w3.org/2000/svg"
   xmlns:sodipodi="http://sodipodi.sourceforge.net/DTD/sodipodi-0.dtd"
   xmlns:inkscape="http://www.inkscape.org/namespaces/inkscape"
   viewBox="0 0 30 30"
   width="60px"
   height="60px"
   version="1.1"
   id="svg4"
   sodipodi:docname="mountain_pass2.svg"
   inkscape:version="1.0.2 (e86c870879, 2021-01-15)">
  <metadata
     id="metadata10">
    <rdf:RDF>
      <cc:Work
         rdf:about="">
        <dc:format>image/svg+xml</dc:format>
        <dc:type
           rdf:resource="http://purl.org/dc/dcmitype/StillImage" />
        <dc:title></dc:title>
      </cc:Work>
    </rdf:RDF>
  </metadata>
  <defs
     id="defs8">
    <inkscape:path-effect
       effect="offset"
       id="path-effect1766"
       is_visible="true"
       lpeversion="1"
       linejoin_type="miter"
       unit="mm"
       offset="1.3"
       miter_limit="4"
       attempt_force_join="true"
       update_on_knot_move="true" />
    <inkscape:path-effect
       effect="offset"
       id="path-effect1762"
       is_visible="true"
       lpeversion="1"
       linejoin_type="miter"
       unit="mm"
       offset="0"
       miter_limit="4"
       attempt_force_join="true"
       update_on_knot_move="true" />
  </defs>
  <sodipodi:namedview
     pagecolor="#ffffff"
     bordercolor="#666666"
     borderopacity="1"
     objecttolerance="10"
     gridtolerance="10"
     guidetolerance="10"
     inkscape:pageopacity="0"
     inkscape:pageshadow="2"
     inkscape:window-width="1997"
     inkscape:window-height="1207"
     id="namedview6"
     showgrid="false"
     inkscape:zoom="9.3166667"
     inkscape:cx="29.838998"
     inkscape:cy="30"
     inkscape:window-x="402"
     inkscape:window-y="148"
     inkscape:window-maximized="0"
     inkscape:current-layer="svg4"
     inkscape:document-rotation="0" />
  <path
     d="M 23,1.5371094 C 22.11712,1.536923 21.234559,1.8769826 20.556641,2.5566406 L 15,8.1132812 9.4433594,2.5566406 C 8.7720057,1.8852866 7.8894971,1.5429687 7,1.5429688 c -0.8894971,0 -1.7718647,0.3404515 -2.4433594,1.0136718 l -2,2 c -1.3578264,1.3578261 -1.3593169,3.5308819 0,4.8867188 L 8.1132812,15 2.5566406,20.556641 c -1.3578256,1.357825 -1.3593159,3.530882 0,4.886718 l 2,2 c 1.3578262,1.357827 3.5308816,1.359317 4.8867188,0 L 15,21.886719 l 5.552734,5.554687 c 1.359589,1.363075 3.53326,1.362802 4.890625,0.002 l 2,-2 c 1.357826,-1.357825 1.359316,-3.530882 0,-4.886718 L 21.886719,15 27.441406,9.4472656 c 1.363076,-1.3595892 1.362803,-3.5332586 0.002,-4.890625 l -2,-2 C 24.764447,1.8777278 23.88288,1.5372957 23,1.5371094 Z"
     id="path1764"
     style="fill:#ffffff"
     inkscape:path-effect="#path-effect1766"
     inkscape:original-d="M 7 4 C 6.744125 4 6.4879687 4.0974687 6.2929688 4.2929688 L 4.2929688 6.2929688 C 3.9019687 6.6839688 3.9019687 7.3170313 4.2929688 7.7070312 L 11.585938 15 L 4.2929688 22.292969 C 3.9019687 22.683969 3.9019687 23.317031 4.2929688 23.707031 L 6.2929688 25.707031 C 6.6839688 26.098031 7.3170313 26.098031 7.7070312 25.707031 L 15 18.414062 L 22.292969 25.707031 C 22.682969 26.098031 23.317031 26.098031 23.707031 25.707031 L 25.707031 23.707031 C 26.098031 23.316031 26.098031 22.682969 25.707031 22.292969 L 18.414062 15 L 25.707031 7.7070312 C 26.098031 7.3170312 26.098031 6.6829688 25.707031 6.2929688 L 23.707031 4.2929688 C 23.316031 3.9019687 22.682969 3.9019687 22.292969 4.2929688 L 15 11.585938 L 7.7070312 4.2929688 C 7.5115312 4.0974687 7.255875 4 7 4 z" />
  <path
     d="M 7,4 C 6.744125,4 6.4879687,4.0974687 6.2929688,4.2929688 l -2,2 c -0.3910001,0.391 -0.3910001,1.0240625 0,1.4140624 L 11.585938,15 4.2929688,22.292969 c -0.3910001,0.391 -0.3910001,1.024062 0,1.414062 l 2,2 c 0.391,0.391 1.0240625,0.391 1.4140624,0 L 15,18.414062 l 7.292969,7.292969 c 0.39,0.391 1.024062,0.391 1.414062,0 l 2,-2 c 0.391,-0.391 0.391,-1.024062 0,-1.414062 L 18.414062,15 25.707031,7.7070312 c 0.391,-0.39 0.391,-1.0240624 0,-1.4140624 l -2,-2 c -0.391,-0.3910001 -1.024062,-0.3910001 -1.414062,0 L 15,11.585938 7.7070312,4.2929688 C 7.5115312,4.0974687 7.255875,4 7,4 Z"
     id="path2"
     style="fill:#aa0000"
     inkscape:path-effect="#path-effect1762"
     inkscape:original-d="M 7 4 C 6.744125 4 6.4879687 4.0974687 6.2929688 4.2929688 L 4.2929688 6.2929688 C 3.9019687 6.6839688 3.9019687 7.3170313 4.2929688 7.7070312 L 11.585938 15 L 4.2929688 22.292969 C 3.9019687 22.683969 3.9019687 23.317031 4.2929688 23.707031 L 6.2929688 25.707031 C 6.6839688 26.098031 7.3170313 26.098031 7.7070312 25.707031 L 15 18.414062 L 22.292969 25.707031 C 22.682969 26.098031 23.317031 26.098031 23.707031 25.707031 L 25.707031 23.707031 C 26.098031 23.316031 26.098031 22.682969 25.707031 22.292969 L 18.414062 15 L 25.707031 7.7070312 C 26.098031 7.3170312 26.098031 6.6829688 25.707031 6.2929688 L 23.707031 4.2929688 C 23.316031 3.9019687 22.682969 3.9019687 22.292969 4.2929688 L 15 11.585938 L 7.7070312 4.2929688 C 7.5115312 4.0974687 7.255875 4 7 4 z" />
</svg>
