<svg enable-background="new 0 0 32.6 32.6" height="580" viewBox="0 0 580 580" width="580" xmlns="http://www.w3.org/2000/svg"><path d="m44.547 161.38c21.308 1.75 42.965 0 63.923 2.27 59.73 29 119.29 57.81 178.85 86.81 62.88-30.92 125.75-61.66 188.63-92.57 19.91 1.75 39.65 2.27 59.38 3.49-4.54 15.2-9.25 30.22-13.97 45.41-58.16 27.42-116.32 54.67-174.66 82.09 55.37 25.68 110.74 51.18 165.93 76.85 4.71 16.24 9.43 32.66 13.97 48.91-18.86 1.74-38.07 4.36-56.94 4.71-60.78-31.26-121.56-62.53-182.34-93.79-62.35 31.44-124.71 63.58-186.88 95.36-19.215 1.92-38.428 1.75-57.64 0 1.747-15.72 3.493-31.44 5.24-47.15 54.84-26.73 109.51-53.62 164.18-80.35-52.92-24.97-105.84-50.12-158.941-75.1-2.794-19.21-5.763-38.42-8.732-57.64z" style="opacity:.8;fill:none;stroke:#fff;stroke-linejoin:round;stroke-linecap:round;stroke-width:57.47"/><path d="m44.547 161.38c21.308 1.75 42.965 0 63.923 2.27 59.73 29 119.29 57.81 178.85 86.81 62.88-30.92 125.75-61.66 188.63-92.57 19.91 1.75 39.65 2.27 59.38 3.49-4.54 15.2-9.25 30.22-13.97 45.41-58.16 27.42-116.32 54.67-174.66 82.09 55.37 25.68 110.74 51.18 165.93 76.85 4.71 16.24 9.43 32.66 13.97 48.91-18.86 1.74-38.07 4.36-56.94 4.71-60.78-31.26-121.56-62.53-182.34-93.79-62.35 31.44-124.71 63.58-186.88 95.36-19.215 1.92-38.428 1.75-57.64 0 1.747-15.72 3.493-31.44 5.24-47.15 54.84-26.73 109.51-53.62 164.18-80.35-52.92-24.97-105.84-50.12-158.941-75.1-2.794-19.21-5.763-38.42-8.732-57.64z" fill="#f00" stroke="#f00" stroke-linecap="round" stroke-linejoin="round" stroke-width="17.466"/><path d="m89.957 177.1c-5.239 8.73-10.479 17.47-15.719 26.2 58.862 29.17 117.722 58.16 176.402 87.33-57.63 30.21-115.27 60.6-172.909 90.82 5.24 8.21 10.48 16.24 15.72 24.45 65.319-33.71 130.469-67.59 195.619-101.3 62.35 33.19 124.7 66.37 186.88 99.56 6.46-10.48 12.92-20.96 19.21-31.44-59.91-29.17-119.81-58.16-179.89-87.33 60.08-27.42 119.98-54.67 179.89-82.09-6.29-9.26-12.75-18.69-19.21-27.95-62.18 30.92-124.53 61.66-186.88 92.57-66.37-30.21-132.74-60.6-199.113-90.82z" fill="#fff"/></svg>