<svg width="128" height="128" version="1.1" xmlns="http://www.w3.org/2000/svg">
 <path d="m33.653 98.935v18.208h60.693v-18.208h-18.208v-24.277l6.0693 3.1088c12.139-3.1079 24.277-15.247 24.277-33.455s-12.139-30.347-24.277-33.455c-6.0693 0.11511-12.139 15.247-12.139 21.316h-12.139c0-6.0693-6.0693-21.224-12.139-21.316-12.139 3.1079-24.277 15.247-24.277 33.455s12.139 30.347 24.277 33.455l6.0693-3.1079v24.277z" fill="#f1eee9" fill-rule="evenodd" stroke-width=".209"/>
 <g fill="#111111" stroke-width=".20929">
  <path d="m45.792 16.678c-10.726 4.7301-18.398 15.452-18.398 27.881 0 12.429 7.6717 23.151 18.398 27.881v-7.0176c-7.256-4.1927-12.139-11.831-12.139-20.863s4.8827-16.671 12.139-20.863v-7.0176zm36.416 0v7.0176c7.256 4.1927 12.139 11.831 12.139 20.863 0 9.032-4.8827 16.671-12.139 20.863v7.0176c10.726-4.7299 18.398-15.452 18.398-27.881 0-12.429-7.6717-23.151-18.398-27.881z" opacity=".75" stop-color="#000000" style="-inkscape-stroke:none;font-variation-settings:normal"/>
  <path d="m51.862 27.49c-7.0224 2.5301-12.139 9.2001-12.139 17.07 0 7.8698 5.1163 14.54 12.139 17.07v-6.6384c-3.6228-2.0908-6.0693-5.9187-6.0693-10.431 0-4.5131 2.4464-8.3395 6.0693-10.432v-6.6384zm24.277 0v6.6384c3.623 2.0923 6.0693 5.9187 6.0693 10.432s-2.4464 8.3395-6.0693 10.432v6.6384c7.0224-2.5301 12.139-9.2001 12.139-17.07 0-7.8698-5.1162-14.54-12.139-17.07z" stop-color="#000000" style="-inkscape-stroke:none;font-variation-settings:normal"/>
  <path d="m57.931 44.559v54.624c0 6.0693 0 6.0693-6.0693 6.0693h-12.139v6.0694h48.555v-6.0694h-12.139c-6.0693 0-6.0693 0-6.0693-6.0693v-54.624c0-6.0693-4.6504-6.0693-6.0693-6.0693-1.4181 0-6.0693 0-6.0693 6.0693z"/>
 </g>
</svg>
