<?xml version="1.0" encoding="UTF-8" standalone="no"?>
<!-- Generator: Adobe Illustrator 16.0.0, SVG Export Plug-In . SVG Version: 6.00 Build 0)  -->

<svg
   xmlns:dc="http://purl.org/dc/elements/1.1/"
   xmlns:cc="http://creativecommons.org/ns#"
   xmlns:rdf="http://www.w3.org/1999/02/22-rdf-syntax-ns#"
   xmlns:svg="http://www.w3.org/2000/svg"
   xmlns="http://www.w3.org/2000/svg"
   xmlns:sodipodi="http://sodipodi.sourceforge.net/DTD/sodipodi-0.dtd"
   xmlns:inkscape="http://www.inkscape.org/namespaces/inkscape"
   version="1.1"
   id="Layer_1"
   x="0px"
   y="0px"
   width="20px"
   height="20px"
   viewBox="0 0 20 20"
   enable-background="new 0 0 20 20"
   xml:space="preserve"
   inkscape:version="0.91 r13725"
   sodipodi:docname="watering_place.svg"><metadata
     id="metadata13"><rdf:RDF><cc:Work
         rdf:about=""><dc:format>image/svg+xml</dc:format><dc:type
           rdf:resource="http://purl.org/dc/dcmitype/StillImage" /></cc:Work></rdf:RDF></metadata><defs
     id="defs11" /><sodipodi:namedview
     pagecolor="#ffffff"
     bordercolor="#666666"
     borderopacity="1"
     objecttolerance="10"
     gridtolerance="10"
     guidetolerance="10"
     inkscape:pageopacity="0"
     inkscape:pageshadow="2"
     inkscape:window-width="657"
     inkscape:window-height="480"
     id="namedview9"
     showgrid="false"
     inkscape:zoom="11.8"
     inkscape:cx="10"
     inkscape:cy="10"
     inkscape:window-x="0"
     inkscape:window-y="0"
     inkscape:window-maximized="0"
     inkscape:current-layer="Layer_1" /><path
     fill-rule="evenodd"
     clip-rule="evenodd"
     fill="#FFFFFF"
     d="M19.027,14.739v1.293c0,0.551-0.449,1-1,1h-0.692v0.684  c0,0.551-0.449,1-1,1h-1.614c-0.551,0-1-0.449-1-1v-0.684H6.269v0.684c0,0.551-0.449,1-1,1H3.654c-0.55,0-1-0.449-1-1v-0.684H1.936  c-0.55,0-1-0.449-1-1v-1.293c-0.521-0.035-0.935-0.471-0.935-0.998v-2.084c0-0.551,0.449-1,1-1h7.671  c0.229-2.387,1.276-4.621,2.99-6.334c1.951-1.952,4.576-3.039,7.336-3.039c0.55,0,0.999,0.449,0.999,0.999V3.95  c0,0.191-0.054,0.369-0.147,0.521c0.094,0.152,0.147,0.33,0.147,0.521v1.666c0,0.189-0.054,0.369-0.147,0.52  c0.094,0.152,0.147,0.332,0.147,0.521v1.666c0,0.551-0.449,1-0.999,1c-0.302,0-0.588,0.104-0.818,0.291h0.818  c0.55,0,0.999,0.449,0.999,1v2.084C19.998,14.282,19.564,14.726,19.027,14.739z"
     id="path3" /><polygon
     fill-rule="evenodd"
     clip-rule="evenodd"
     fill="#000001"
     points="1.002,11.657 18.999,11.657 18.999,13.741 18.027,13.741   18.027,16.032 16.335,16.032 16.335,17.716 14.721,17.716 14.721,16.032 5.269,16.032 5.269,17.716 3.654,17.716 3.654,16.032   1.936,16.032 1.936,13.741 1.002,13.741 "
     id="polygon5" /><path
     fill-rule="evenodd"
     clip-rule="evenodd"
     fill="#3762AD"
     d="M9.677,10.657C9.909,8.47,10.896,6.505,12.37,5.03  c1.696-1.697,4.04-2.747,6.629-2.747V3.95c-2.129,0-4.057,0.863-5.451,2.258c-1.172,1.172-1.969,2.721-2.192,4.449H9.677  L9.677,10.657z M12.407,10.657H14.1c0.198-0.979,0.684-1.854,1.364-2.535c0.904-0.904,2.154-1.463,3.535-1.463V4.993  c-1.841,0-3.508,0.746-4.714,1.951C13.302,7.929,12.624,9.218,12.407,10.657L12.407,10.657z M15.169,10.657h1.768  c0.112-0.23,0.262-0.439,0.441-0.619c0.415-0.414,0.988-0.672,1.621-0.672V7.7c-1.093,0-2.082,0.443-2.799,1.16  C15.711,9.349,15.349,9.968,15.169,10.657z"
     id="path7"
     style="fill:#0064ff;fill-opacity:1" /></svg>